<?xml version="1.0" standalone="no"?>
<!DOCTYPE svg PUBLIC "-//W3C//DTD SVG 1.1//EN" "http://www.w3.org/Graphics/SVG/1.1/DTD/svg11.dtd" >
<svg xmlns="http://www.w3.org/2000/svg">
<defs>
<font id="Colaborate-Light" horiz-adv-x="999" >
  <font-face 
    font-family="ColaborateLight"
    font-weight="400"
    font-stretch="normal"
    units-per-em="2048"
    panose-1="2 0 5 3 4 0 0 2 0 4"
    ascent="1638"
    descent="-410"
    x-height="936"
    cap-height="1325"
    bbox="-53 -428 1726 1710"
    underline-thickness="102"
    underline-position="-102"
    unicode-range="U+0020-U+00FF"
  />
<missing-glyph horiz-adv-x="748" 
d="M68 0v1365h544v-1365h-544zM136 68h408v1229h-408v-1229z" />
    <glyph glyph-name=".notdef" horiz-adv-x="748" 
d="M68 0v1365h544v-1365h-544zM136 68h408v1229h-408v-1229z" />
    <glyph glyph-name=".null" horiz-adv-x="0" 
 />
    <glyph glyph-name="nonmarkingreturn" horiz-adv-x="682" 
 />
    <glyph glyph-name="space" unicode=" " horiz-adv-x="499" 
 />
    <glyph glyph-name="exclam" unicode="!" horiz-adv-x="499" 
d="M317 348h-135v977h135v-977zM332 0h-164v172h164v-172z" />
    <glyph glyph-name="quotedbl" unicode="&#x22;" horiz-adv-x="737" 
d="M578 1325l-17 -444h-102l-17 444h136zM297 1325l-16 -444h-105l-16 444h137z" />
    <glyph glyph-name="numbersign" unicode="#" 
d="M973 811h-217l-56 -313h193v-107h-211l-68 -391h-125l68 391h-227l-68 -391h-125l68 391h-178v107h198l54 313h-173v107h193l72 407h125l-72 -407h227l72 407h125l-72 -407h197v-107zM631 811h-228l-53 -313h225z" />
    <glyph glyph-name="dollar" unicode="$" 
d="M895 344q0 -324 -342 -371v-174h-121v166q-119 0 -340 60l51 131q6 -2 33 -12.5t33 -12.5l29.5 -10t32 -11.5t28.5 -9.5t32.5 -8l31 -5t35 -4t34.5 -1v547q-80 31 -127 54.5t-104.5 66.5t-84 105.5t-26.5 145.5q0 156 93 240t249 102v185h121v-180q152 -6 287 -54
l-52 -131q-141 59 -235 66v-488q78 -29 127 -55.5t104.5 -71.5t83 -112.5t27.5 -157.5zM434 788v435q-193 -33 -192 -222q0 -80 50 -128t142 -85zM743 340q0 90 -50 144.5t-140 95.5v-482q190 52 190 242z" />
    <glyph glyph-name="percent" unicode="%" horiz-adv-x="1511" 
d="M1401 342q0 -78 -9.5 -135t-36 -113.5t-80.5 -86.5t-136 -30q-80 0 -134.5 30t-79 86.5t-33.5 113.5t-9 135q0 350 258 350q82 0 135 -27.5t79.5 -81t36 -108.5t9.5 -133zM1194 1288l-743 -1288h-129l741 1288h131zM629 997.5q0 -77.5 -9.5 -135t-36 -114t-80.5 -86
t-136 -29.5q-80 0 -134.5 29.5t-79 86t-33.5 114t-9 134.5q0 350 258 351q82 0 135 -28t79.5 -81t36 -108.5t9.5 -133zM1300 342q0 66 -4 108t-19 83.5t-49 62t-87 20.5q-49 0 -82 -23.5t-48.5 -67.5t-20.5 -86t-5 -97q0 -66 5 -111t19.5 -89t47.5 -66.5t82 -22.5
q53 0 87 21.5t49 66.5t20 89t5 112zM528 997q0 66 -4 108t-19.5 84t-49 62.5t-86.5 20.5q-49 0 -82 -23.5t-48.5 -67.5t-20.5 -86t-5 -98q0 -66 5 -110.5t19.5 -88.5t47 -66.5t82.5 -22.5q53 0 86.5 21.5t49 66.5t20.5 88.5t5 111.5z" />
    <glyph glyph-name="ampersand" unicode="&#x26;" 
d="M905 0h-119l-28 111q-96 -139 -256 -140q-180 0 -294 97.5t-114 285.5q0 266 244 383l-38 27.5t-46 34t-42 38t-40 49t-25.5 57.5t-11.5 71q0 154 78 247t248 93q326 0 325 -322q0 -117 -76.5 -193.5t-230.5 -142.5q-123 -53 -184.5 -127.5t-61.5 -210.5
q0 -111 68 -196.5t209 -85.5q68 0 131.5 45t106.5 115v249h-211v101h344v-299q0 -49 5 -106.5t11 -110zM649 1034q0 104 -43 159.5t-149 55.5q-182 0 -183 -233q0 -27 9.5 -53.5t20.5 -45t33.5 -41t34 -31.5l38 -28.5t30.5 -23.5q94 39 151.5 93t57.5 148z" />
    <glyph glyph-name="quotesingle" unicode="'" horiz-adv-x="499" 
d="M317 1325l-16 -444h-102l-17 444h135z" />
    <glyph glyph-name="parenleft" unicode="(" horiz-adv-x="563" 
d="M457 -262h-123q-129 223 -173 386t-44 396q0 266 46 432t161 373h122q-109 -199 -147.5 -371t-38.5 -434q0 -229 39 -398t158 -384z" />
    <glyph glyph-name="parenright" unicode=")" horiz-adv-x="563" 
d="M449 520q0 -233 -44.5 -396t-173.5 -386h-122q119 215 157.5 384t38.5 398q0 262 -39 434t-147 371h123q115 -207 161 -373t46 -432z" />
    <glyph glyph-name="asterisk" unicode="*" horiz-adv-x="798" 
d="M772 1012l-293 -72l-2 -12l191 -244l-93 -66l-163 254h-15l-170 -254l-92 68l193 242l-6 12l-295 74l39 112l282 -106l12 10l-14 297h115l-17 -301l13 -8l280 106z" />
    <glyph glyph-name="plus" unicode="+" 
d="M926 383h-363v-383h-129v383h-360v113h360v372h129v-372h363v-113z" />
    <glyph glyph-name="comma" unicode="," horiz-adv-x="499" 
d="M330 154l-166 -365h-107l115 365h158z" />
    <glyph glyph-name="hyphen" unicode="-" horiz-adv-x="669" 
d="M610 438h-551v119h551v-119z" />
    <glyph glyph-name="period" unicode="." horiz-adv-x="499" 
d="M330 0h-160v170h160v-170z" />
    <glyph glyph-name="slash" unicode="/" horiz-adv-x="520" 
d="M541 1348l-437 -1368h-127l439 1368h125z" />
    <glyph glyph-name="zero" unicode="0" 
d="M922 630.5q0 -112.5 -7.5 -197.5t-34 -177t-71.5 -151.5t-124 -97.5t-189 -38q-109 0 -188 39t-123 97.5t-69.5 151.5t-32.5 177t-7 197q0 637 422 637q109 0 187.5 -36t123.5 -91.5t70.5 -143.5t34 -171t8.5 -195.5zM768 631q0 100 -3 164.5t-18.5 140.5t-44 118
t-80 70.5t-124.5 28.5q-86 0 -143.5 -45t-83 -128t-34 -163t-8.5 -186q0 -102 4.5 -170t18.5 -145.5t42 -124t79 -77t123 -30.5q63 0 111 19.5t77 62.5t47.5 87t25.5 115.5t9 124t2 138.5z" />
    <glyph glyph-name="one" unicode="1" 
d="M666 -2h-150v1081l-235 -202l-52 120l295 246h142v-1245z" />
    <glyph glyph-name="two" unicode="2" 
d="M895 0h-768l-49 125q31 29 135 120t174 158.5t155 158.5t129 175t44 156q0 139 -64.5 200.5t-191.5 61.5q-72 0 -134.5 -21.5t-166.5 -72.5l-52 129q197 80 357 80q182 0 292.5 -89t110.5 -280q0 -70 -33.5 -150.5t-72.5 -140t-121 -146.5t-123 -125l-137 -123l-109 -97
h625v-119z" />
    <glyph glyph-name="three" unicode="3" 
d="M846 324q0 -129 -65.5 -211t-159 -113t-213.5 -31q-193 0 -336 49l51 129l28.5 -10l30.5 -11t31 -10l35 -10.5t34.5 -8.5t41 -7t42 -4t48.5 -2q121 0 199.5 59.5t78.5 182.5q0 160 -100 216t-291 56v111q178 0 269.5 48t91.5 185q0 213 -230 213q-102 0 -287 -90l-51 129
q152 76 340 76q180 0 280.5 -81t100.5 -243q0 -133 -76.5 -204.5t-197.5 -86.5q129 -20 217 -98.5t88 -232.5z" />
    <glyph glyph-name="four" unicode="4" 
d="M956 344h-196v-344h-150v344h-495l-54 123l551 776h148v-784h196v-115zM610 459v606l-426 -606h426z" />
    <glyph glyph-name="five" unicode="5" 
d="M897 391q0 -199 -121 -310.5t-323 -111.5q-205 0 -342 45l49 129q147 -59 294.5 -59t220.5 82t73 229q0 139 -63.5 212t-174.5 73q-100 0 -256 -80l-113 45v598h705v-115h-555v-376l46 13t52.5 14t55 10.5t69.5 5.5q184 0 283.5 -105.5t99.5 -298.5z" />
    <glyph glyph-name="six" unicode="6" 
d="M907 393q0 -176 -110.5 -300t-282.5 -124q-102 0 -179 35t-123 91.5t-73.5 139t-37 163.5t-9.5 182q0 174 49 325.5t165 258t280 106.5q129 0 258 -35l-49 -129q-125 49 -199 49q-170 0 -267.5 -151.5t-97.5 -393.5q43 92 123 148.5t168 56.5q186 0 285.5 -113.5
t99.5 -308.5zM754 393q0 309 -236 309q-188 0 -268 -204q0 -229 65.5 -321.5t200.5 -92.5q106 0 172 83t66 226z" />
    <glyph glyph-name="seven" unicode="7" 
d="M870 1130l-467 -1130h-165l497 1126h-645v117h727z" />
    <glyph glyph-name="eight" unicode="8" 
d="M924 303q0 -334 -430 -334q-80 0 -147.5 14.5t-132 49.5t-101.5 103.5t-37 166.5q0 133 80 222t219 130q-2 0 -23.5 10.5t-33 15.5t-36 18.5t-39 25.5l-37 29.5t-35.5 37t-26.5 44t-19.5 53.5t-6 59q0 158 101.5 240t283.5 82q190 0 289.5 -76t99.5 -244q0 -68 -32 -124
t-78 -91t-88 -54t-74 -28q303 -96 303 -350zM745 946q0 111 -60 161t-181 50q-240 0 -240 -213q0 -90 72 -150.5t160 -86.5q90 20 169.5 84.5t79.5 154.5zM774 305q0 207 -274 293q-123 -37 -200 -102.5t-77 -190.5q0 -109 72 -166t199 -57t203.5 55t76.5 168z" />
    <glyph glyph-name="nine" unicode="9" 
d="M905 659q0 -174 -49 -325.5t-165 -258t-279 -106.5q-129 0 -258 35l51 129q125 -49 196 -49q170 0 267.5 151.5t97.5 393.5q-43 -92 -123 -148.5t-168 -56.5q-186 0 -284.5 113.5t-98.5 308.5q0 176 110.5 300t280.5 124q102 0 180 -35t123 -91.5t73 -139t37 -164
t9 -181.5zM748 741q0 229 -66 321.5t-201 92.5q-106 0 -171.5 -83t-65.5 -226q0 -309 235 -309q189 -1 269 204z" />
    <glyph glyph-name="colon" unicode=":" horiz-adv-x="499" 
d="M330 756h-160v170h160v-170zM330 0h-160v170h160v-170z" />
    <glyph glyph-name="semicolon" unicode=";" horiz-adv-x="499" 
d="M324 756h-160v170h160v-170zM330 154l-166 -365h-107l107 365h166z" />
    <glyph glyph-name="less" unicode="&#x3c;" 
d="M926 43l-854 344v162l854 346v-143l-717 -285l717 -283v-141z" />
    <glyph glyph-name="equal" unicode="=" 
d="M926 553h-854v119h854v-119zM926 199h-854v118h854v-118z" />
    <glyph glyph-name="greater" unicode="&#x3e;" 
d="M926 387l-854 -344v141l716 287l-716 281v143l854 -346v-162z" />
    <glyph glyph-name="question" unicode="?" horiz-adv-x="839" 
d="M778 1030q0 -68 -33.5 -124t-83 -97l-98.5 -81t-83 -92t-34 -112v-188h-141v199q0 78 34 139t82 101l95 76t81 81t34 98q0 106 -52.5 152.5t-166.5 46.5q-127 0 -271 -72l-37 127q176 61 308 62q366 -1 366 -316zM459 0h-164v172h164v-172z" />
    <glyph glyph-name="at" unicode="@" horiz-adv-x="1722" 
d="M1554 782q0 -266 -168.5 -396t-439.5 -130q-197 0 -316.5 104.5t-119.5 294.5q0 166 107.5 280t291.5 114q98 0 176 -31v-395l72 10l41 -107l-233 -28v436q-31 10 -60 10q-115 0 -186.5 -72.5t-71.5 -212.5q0 -156 86 -228.5t217 -72.5q465 0 465 422q0 236 -142.5 349.5
t-350.5 113.5q-119 0 -225.5 -32.5t-196.5 -99.5t-142.5 -184.5t-52.5 -271.5q0 -156 52.5 -273.5t142.5 -183t195.5 -97t224.5 -31.5q213 0 434 73l49 -112q-215 -66 -490 -66q-342 0 -543.5 181.5t-201.5 508.5q0 330 211 511.5t543 181.5q117 0 226 -34t201.5 -100.5
t148.5 -178.5t56 -253z" />
    <glyph glyph-name="A" unicode="A" horiz-adv-x="1294" 
d="M1229 0h-168l-141 395h-545l-150 -395h-157l538 1325h123zM881 508l-222 629l-241 -629h463z" />
    <glyph glyph-name="B" unicode="B" horiz-adv-x="1187" 
d="M1069 377q0 -211 -117.5 -294t-322.5 -83h-428v1325h360q217 0 332 -73.5t115 -272.5q0 -102 -58.5 -177t-152.5 -108q272 -55 272 -317zM854 977q0 133 -67.5 182t-225.5 49h-211v-469h240q117 0 190.5 59.5t73.5 178.5zM913 377q0 143 -85 195.5t-234 52.5h-244v-508
h266q147 0 222 54t75 206z" />
    <glyph glyph-name="C" unicode="C" horiz-adv-x="1112" 
d="M1030 25q-170 -59 -348 -60q-289 0 -421 186.5t-132 510.5q0 145 28.5 263.5t91 216t176.5 152t269 54.5q170 0 322 -50l-51 -131q-147 63 -271 64q-410 0 -409 -567q0 -582 397 -582q115 0 297 74z" />
    <glyph glyph-name="D" unicode="D" horiz-adv-x="1286" 
d="M1157 667.5q0 -358.5 -147.5 -513t-485.5 -154.5h-323v1325h323q344 0 488.5 -149.5t144.5 -508zM1001 666q0 305 -107.5 423.5t-369.5 118.5h-174v-1091h193q236 0 347 132t111 417z" />
    <glyph glyph-name="E" unicode="E" horiz-adv-x="1097" 
d="M952 0h-751v1325h733v-117h-584v-465h541v-116h-541v-510h602v-117z" />
    <glyph glyph-name="F" unicode="F" horiz-adv-x="1048" 
d="M934 1206h-584v-471h559v-114h-559v-621h-149v1325h733v-119z" />
    <glyph glyph-name="G" unicode="G" horiz-adv-x="1220" 
d="M1092 80q-119 -61 -205 -88t-201 -27q-557 0 -557 699q0 322 139.5 503t436.5 181q117 0 305 -50l-52 -131q-145 63 -251 64q-215 0 -318.5 -139.5t-103.5 -427.5q0 -102 10 -184.5t38.5 -158t74 -127t117 -82t167.5 -30.5q117 0 264 82v373h-292v118h428v-575z" />
    <glyph glyph-name="H" unicode="H" horiz-adv-x="1325" 
d="M1124 0h-149v625h-625v-625h-149v1325h149v-582h625v582h149v-1325z" />
    <glyph glyph-name="I" unicode="I" horiz-adv-x="501" 
d="M326 0h-150v1325h150v-1325z" />
    <glyph glyph-name="J" unicode="J" horiz-adv-x="815" 
d="M614 418q0 -121 -34.5 -214t-80.5 -145.5t-127 -93.5t-134.5 -56t-141.5 -36q-12 -2 -18 -4l-41 131q14 2 56 10t60.5 12.5t56.5 14.5t57.5 19.5l51 25.5t49 35.5t39 47.5t32 60.5t18.5 76.5t8 95v928h149v-907z" />
    <glyph glyph-name="K" unicode="K" horiz-adv-x="1206" 
d="M1174 0h-197l-627 639v-639h-149v1325h149v-602l588 602h164l-610 -629z" />
    <glyph glyph-name="L" unicode="L" horiz-adv-x="972" 
d="M956 0h-755v1325h149v-1202h606v-123z" />
    <glyph glyph-name="M" unicode="M" horiz-adv-x="1716" 
d="M1516 0h-146v1163l-452 -1163h-123l-457 1163v-1163h-137v1325h229l432 -1116l436 1116h218v-1325z" />
    <glyph glyph-name="N" unicode="N" horiz-adv-x="1380" 
d="M1180 0h-217l-625 1149v-1149h-137v1325h213l620 -1149v1149h146v-1325z" />
    <glyph glyph-name="O" unicode="O" horiz-adv-x="1392" 
d="M1264 657q0 -319 -133.5 -505.5t-430.5 -186.5q-129 0 -228 35t-163.5 95.5t-105.5 148.5t-57.5 189.5t-16.5 223.5q0 205 53.5 354.5t184.5 243t335 93.5q158 0 269.5 -51.5t174 -146.5t90.5 -216t28 -277zM1108 657q0 283 -92 428.5t-316 145.5q-225 0 -320 -146.5
t-95 -427t95 -428t320.5 -147.5t316.5 148t91 427z" />
    <glyph glyph-name="P" unicode="P" horiz-adv-x="1136" 
d="M1026 948q0 -389 -420 -389h-256v-559h-149v1325h383q213 0 327.5 -88t114.5 -289zM872 948q0 150 -72.5 205t-219.5 55h-230v-532h240q143 0 212.5 60t69.5 212z" />
    <glyph glyph-name="Q" unicode="Q" horiz-adv-x="1392" 
d="M1264 657q0 -319 -133.5 -505.5t-430.5 -186.5q-129 0 -228 35t-163.5 95.5t-105.5 148.5t-57.5 189.5t-16.5 223.5q0 317 136 504t437 187q158 0 269.5 -51.5t174 -146.5t90.5 -216t28 -277zM1139 -117l-54 -116l-436 63l56 90zM1108 657q0 283 -92 428.5t-316 145.5
q-225 0 -320 -146.5t-95 -427t95 -428t320.5 -147.5t316.5 148t91 427z" />
    <glyph glyph-name="R" unicode="R" horiz-adv-x="1202" 
d="M1110 0h-184l-437 592h-139v-592h-149v1325h413q182 0 302 -83t120 -273q0 -356 -372 -373zM883 969q0 117 -66.5 178t-191.5 61h-275v-499h277q256 0 256 260z" />
    <glyph glyph-name="S" unicode="S" horiz-adv-x="1124" 
d="M979 344q0 -379 -483 -379q-139 0 -357 60l51 131q197 -74 308 -74q88 0 156.5 20.5t119.5 81t51 156.5q0 43 -10 78t-41 64.5l-49 46t-74.5 40l-73 30.5t-85.5 32q-82 29 -132.5 53.5t-107.5 67.5t-85 105.5t-28 143.5q0 176 133.5 261.5t333.5 85.5q170 0 328 -54
l-51 -131q-156 68 -279 68q-145 0 -228 -57.5t-83 -172.5q0 -88 64.5 -137t195.5 -96q200 -71 272 -121q154 -107 154 -303z" />
    <glyph glyph-name="T" unicode="T" horiz-adv-x="1040" 
d="M987 1206h-393v-1206h-150v1206h-391v119h934v-119z" />
    <glyph glyph-name="U" unicode="U" horiz-adv-x="1388" 
d="M1188 485q0 -264 -118 -392t-361 -128q-266 0 -387 128t-121 396v836h149v-815q0 -244 84 -336t275 -92q174 0 251.5 97t77.5 331v815h150v-840z" />
    <glyph glyph-name="V" unicode="V" horiz-adv-x="1236" 
d="M1178 1325l-484 -1325h-131l-502 1325h166l406 -1122l385 1122h160z" />
    <glyph glyph-name="W" unicode="W" horiz-adv-x="1800" 
d="M1726 1325l-352 -1325h-174l-299 1053l-315 -1053h-178l-334 1325h157l283 -1126l311 1071h174l293 -1073l291 1128h143z" />
    <glyph glyph-name="X" unicode="X" horiz-adv-x="1185" 
d="M1108 0h-182l-338 569l-361 -569h-161l442 684l-387 641h174l303 -510l320 510h161l-405 -629z" />
    <glyph glyph-name="Y" unicode="Y" horiz-adv-x="1150" 
d="M1118 1325l-461 -729v-596h-149v588l-475 737h170l387 -598l371 598h157z" />
    <glyph glyph-name="Z" unicode="Z" horiz-adv-x="1103" 
d="M1012 1198l-758 -1079h741v-119h-856l-47 127l756 1079h-680v119h795z" />
    <glyph glyph-name="bracketleft" unicode="[" horiz-adv-x="557" 
d="M463 -260h-291v1644h291v-102h-162v-1434h162v-108z" />
    <glyph glyph-name="backslash" unicode="\" horiz-adv-x="520" 
d="M541 -20h-127l-437 1368h127z" />
    <glyph glyph-name="bracketright" unicode="]" horiz-adv-x="557" 
d="M393 -258h-291v108h162v1436h-162v100h291v-1644z" />
    <glyph glyph-name="asciicircum" unicode="^" 
d="M930 551h-142l-290 612l-291 -612h-135l370 774h109z" />
    <glyph glyph-name="underscore" unicode="_" horiz-adv-x="1024" 
d="M1026 -209h-1028v105h1028v-105z" />
    <glyph glyph-name="grave" unicode="`" horiz-adv-x="425" 
d="M387 1085h-106l-242 240h151z" />
    <glyph glyph-name="a" unicode="a" horiz-adv-x="980" 
d="M852 0h-119q0 6 -16.5 52t-18.5 59q-39 -55 -108.5 -94.5t-153.5 -39.5q-152 0 -246 67t-94 202q0 156 110.5 239.5t391.5 83.5h90v72q0 213 -186 213q-152 0 -320 -82l-47 115q190 72 369 71q150 0 234.5 -75.5t84.5 -225.5v-370q0 -19 29 -287zM690 207v262h-63
q-217 0 -303 -51t-86 -168q0 -78 56 -123t157 -45q167 0 239 125z" />
    <glyph glyph-name="b" unicode="b" horiz-adv-x="1005" 
d="M909 473q0 -217 -98 -356.5t-297 -139.5q-156 0 -244 134l-28 -111h-117q18 176 18 287v1059h133v-549q37 61 113 111t160 50q186 0 273 -136t87 -349zM770 469q0 199 -66.5 292t-179.5 93q-158 0 -252 -201v-428q82 -143 230 -143q268 0 268 387z" />
    <glyph glyph-name="c" unicode="c" horiz-adv-x="886" 
d="M809 39q-51 -25 -146.5 -43.5t-152.5 -18.5q-207 0 -310.5 129.5t-103.5 354.5q0 236 102.5 366.5t317.5 130.5q133 0 289 -61l-47 -113q-139 70 -244 70q-279 0 -278 -393q0 -379 276 -379q115 0 250 70z" />
    <glyph glyph-name="d" unicode="d" horiz-adv-x="1005" 
d="M883 0h-117l-31 111q-88 -133 -243 -134q-207 0 -301.5 137.5t-94.5 358.5q0 207 99.5 346t275.5 139q86 0 152.5 -47t105.5 -110v545h133v-1059q1 -92 21 -287zM733 225v428q-16 37 -30.5 61.5t-45 61.5t-72.5 57.5t-96 20.5q-111 0 -182 -95t-71 -290q0 -387 268 -387
q147 0 229 143z" />
    <glyph glyph-name="e" unicode="e" horiz-adv-x="985" 
d="M885 422h-645q10 -342 272 -342q141 0 291 80l41 -111q-152 -72 -348 -72q-201 0 -300.5 135.5t-99.5 346.5q0 88 19.5 171t61.5 159.5t122 122.5t188 46q219 0 308.5 -139t89.5 -397zM752 526q-4 168 -67.5 248t-195.5 80q-111 0 -177 -84t-74 -244h514z" />
    <glyph glyph-name="f" unicode="f" horiz-adv-x="571" 
d="M571 1257q-127 -8 -196.5 -62t-69.5 -148v-111h213v-105h-213v-831h-133v831h-141v105h141v98q0 150 111.5 239t253.5 99z" />
    <glyph glyph-name="g" unicode="g" horiz-adv-x="1015" 
d="M948 -139q0 -131 -123 -199t-307 -68q-236 0 -337 67t-101 192q0 72 59.5 125t124.5 69q-125 53 -125 158q0 74 90 151q-102 117 -102 256q0 47 16.5 100.5t55.5 112t117.5 96t185.5 37.5q88 0 155 -24q266 23 289 22l-41 -102h-133q43 -35 77 -99.5t34 -138.5
q0 -147 -94.5 -252.5t-282.5 -105.5q-41 0 -104.5 13.5t-92.5 29.5l-14 -18.5t-13.5 -16.5t-11.5 -15t-8 -18.5t-2 -19.5q0 -27 18.5 -44t82 -33.5t178.5 -26.5q240 -20 324.5 -79.5t84.5 -168.5zM743 614q0 115 -60 177.5t-177 62.5t-178.5 -68.5t-61.5 -177.5
q0 -113 61.5 -179.5t180.5 -66.5q121 0 178 74t57 178zM809 -139q0 61 -97.5 93t-342.5 54q-70 -16 -110 -62t-40 -91q0 -74 76 -116t223 -42q291 0 291 164z" />
    <glyph glyph-name="h" unicode="h" horiz-adv-x="1001" 
d="M858 0h-133v573q0 137 -42 209t-163 72q-88 0 -153.5 -63.5t-90.5 -135.5v-655h-133v1346h133v-549q35 61 106 111t159 50q317 0 317 -358v-600z" />
    <glyph glyph-name="i" unicode="i" horiz-adv-x="425" 
d="M287 1165h-148v160h148v-160zM281 0h-134v936h134v-936z" />
    <glyph glyph-name="j" unicode="j" horiz-adv-x="417" 
d="M279 1165h-150v160h150v-160zM270 12q0 -137 -68.5 -217t-211.5 -121l-43 115q106 23 148 68t42 137v942h133v-924z" />
    <glyph glyph-name="k" unicode="k" horiz-adv-x="903" 
d="M872 0h-161l-435 489v-489h-133v1346h133v-795l398 385h149l-424 -406z" />
    <glyph glyph-name="l" unicode="l" horiz-adv-x="419" 
d="M276 0h-133v1346h133v-1346z" />
    <glyph glyph-name="m" unicode="m" horiz-adv-x="1576" 
d="M1434 0h-134v594q0 121 -43 190.5t-161 69.5q-82 0 -149.5 -63.5t-96.5 -145.5v-645h-133v594q0 260 -203 260q-78 0 -144.5 -62.5t-93.5 -134.5v-657h-133v721q0 6 -18 215h117l30 -139q41 59 111 110t152 51q117 0 181 -47t105 -139q47 76 122 131t167 55
q164 0 244 -87t80 -273v-598z" />
    <glyph glyph-name="n" unicode="n" horiz-adv-x="1001" 
d="M858 0h-133v582q0 61 -7 104t-27.5 84t-63.5 62.5t-109 21.5q-84 0 -148.5 -61.5t-93.5 -137.5v-655h-133v737q0 45 -8 114t-10 85h117l28 -139l18 21q17 22 26.5 30t30 29.5t37.5 32t43 23.5t53.5 19t58.5 6q176 0 248.5 -96t72.5 -272v-590z" />
    <glyph glyph-name="o" unicode="o" horiz-adv-x="1017" 
d="M922 473q0 -223 -96.5 -359.5t-315.5 -136.5t-316.5 135.5t-97.5 360.5q0 215 98.5 350t315.5 135q412 0 412 -485zM782 473q0 184 -61.5 282.5t-210.5 98.5q-274 0 -274 -381q0 -391 274 -391q150 0 211 101.5t61 289.5z" />
    <glyph glyph-name="p" unicode="p" horiz-adv-x="1005" 
d="M909 463q0 -211 -95 -348.5t-282 -137.5q-162 0 -256 129v-475h-133v1024q0 131 -18 281h117l32 -141q41 63 111 113t150 50q199 0 286.5 -137t87.5 -358zM770 467q0 387 -262 387q-78 0 -141.5 -60.5t-92.5 -138.5v-432q33 -45 54.5 -67.5t75 -48t120.5 -25.5
q113 0 179.5 94t66.5 291z" />
    <glyph glyph-name="q" unicode="q" horiz-adv-x="1005" 
d="M883 936q-20 -168 -21 -281v-1024h-133v475q-94 -129 -256 -129q-188 0 -282.5 136.5t-94.5 349.5q0 217 94.5 356t288.5 139q80 0 145.5 -49t106.5 -114l35 141h117zM731 223v432q-29 78 -91 138.5t-140 60.5q-131 0 -197.5 -101.5t-66.5 -285.5q0 -197 67.5 -291
t179.5 -94q68 0 120 25.5t73.5 48t54.5 67.5z" />
    <glyph glyph-name="r" unicode="r" horiz-adv-x="702" 
d="M676 913l-47 -112q-61 53 -148 53q-33 0 -61.5 -17.5t-52 -53t-38 -60.5t-32.5 -69t-21 -46v-608h-133v727q0 41 -3 81t-8 77l-7 51h117l28 -191q111 213 238 213q96 0 168 -45z" />
    <glyph glyph-name="s" unicode="s" horiz-adv-x="849" 
d="M758 252q0 -135 -100.5 -205t-247.5 -70q-186 0 -322 60l47 113q98 -41 149.5 -54.5t129.5 -13.5q98 0 150 44t52 124q0 29 -13 53.5t-28.5 39.5t-52.5 31.5t-56.5 22.5t-68.5 23q-72 23 -111.5 40t-92 49t-77 78t-24.5 107q0 137 99.5 200.5t244.5 63.5q119 0 291 -63
l-47 -113q-14 6 -42 19.5l-39 18.5t-33.5 13.5t-39 11.5t-39 6t-49.5 3q-205 0 -205 -154q0 -55 49.5 -84.5t149.5 -60.5q63 -18 93 -28.5t83.5 -37t80 -54t48 -76t21.5 -107.5z" />
    <glyph glyph-name="t" unicode="t" horiz-adv-x="520" 
d="M557 0l-43 -121q-168 33 -255 123t-87 225v604h-141v105h141v240h133v-240h215v-105h-215v-606q0 -104 60.5 -155.5t191.5 -69.5z" />
    <glyph glyph-name="u" unicode="u" horiz-adv-x="989" 
d="M864 0h-116l-31 139q-2 -4 -20.5 -26.5t-30 -34.5t-37 -35t-48 -34t-55 -21.5t-67.5 -10.5q-315 0 -316 369v590h133v-582q0 -84 12.5 -137t58.5 -94t130 -41t143.5 60.5t90.5 138.5v655h133v-737q0 -45 9 -110.5t11 -88.5z" />
    <glyph glyph-name="v" unicode="v" horiz-adv-x="1001" 
d="M922 936l-361 -936h-117l-362 936h143l283 -762l276 762h138z" />
    <glyph glyph-name="w" unicode="w" horiz-adv-x="1458" 
d="M1380 936l-319 -936h-133l-201 659l-217 -659h-137l-295 936h141l234 -766l219 676h123l204 -672l248 762h133z" />
    <glyph glyph-name="x" unicode="x" horiz-adv-x="921" 
d="M870 0h-161l-248 381l-264 -381h-146l336 473l-313 463h159l236 -358l244 358h141l-317 -449z" />
    <glyph glyph-name="y" unicode="y" horiz-adv-x="995" 
d="M913 936l-391 -1086q-41 -113 -101.5 -174t-182.5 -104l-43 117q145 39 180 133l82 217l-375 897h143l299 -743l254 743h135z" />
    <glyph glyph-name="z" unicode="z" horiz-adv-x="839" 
d="M764 823l-537 -719h512v-104h-616l-47 113l538 718h-489v105h592z" />
    <glyph glyph-name="braceleft" unicode="{" horiz-adv-x="731" 
d="M621 -242q-133 4 -212 57.5t-102.5 132.5t-38 172t-18.5 172t-41 134t-111 61v113q55 2 88 34t44.5 82t19.5 113.5t12 130t24.5 131t54.5 114.5t105.5 83t174.5 37v-111q-115 0 -171.5 -57t-66.5 -144t-14 -179.5t-36 -175.5t-108 -117q66 -25 100.5 -86.5t40 -135
t14.5 -153.5t22.5 -145.5t68.5 -108.5t150 -43v-111z" />
    <glyph glyph-name="bar" unicode="|" horiz-adv-x="499" 
d="M309 -340h-121v1778h121v-1778z" />
    <glyph glyph-name="braceright" unicode="}" horiz-adv-x="731" 
d="M633 487q-74 -6 -111 -61t-41 -134t-18 -172t-38 -172t-102.5 -132.5t-211.5 -57.5v111q94 0 149 43t68.5 108.5t22.5 145.5t14.5 153.5t40 135t100.5 86.5q-76 35 -107.5 117.5t-36 175t-14.5 179.5t-66.5 144t-170.5 57v111q102 -4 173.5 -37t105.5 -83t54.5 -114.5
t24.5 -131t12 -130t19.5 -113.5t44.5 -82t88 -34v-113z" />
    <glyph glyph-name="asciitilde" unicode="~" 
d="M946 524q0 -98 -69.5 -156.5t-174.5 -58.5q-70 0 -147.5 40t-143 80t-106.5 40q-137 0 -137 -147l-115 57q0 100 65.5 157.5t172.5 57.5q88 0 219 -79t178 -79q143 0 143 146z" />
    <glyph glyph-name="uni00A0" unicode="&#xa0;" horiz-adv-x="499" 
 />
    <glyph glyph-name="exclamdown" unicode="&#xa1;" horiz-adv-x="499" 
d="M332 1153h-164v172h164v-172zM317 0h-133v977h133v-977z" />
    <glyph glyph-name="cent" unicode="&#xa2;" horiz-adv-x="866" 
d="M788 39q-86 -41 -229 -57v-185h-117v185q-174 20 -260 147t-86 332q0 451 346 493v189h117v-187q100 -10 225 -59l-47 -113q-88 45 -178 62v-758q88 12 182 64zM442 92v754q-207 -41 -206 -385q-1 -328 206 -369z" />
    <glyph glyph-name="sterling" unicode="&#xa3;" 
d="M948 0h-844v123h140v555h-148v113h148v53q0 90 18.5 163.5t45 124t74.5 90.5t86 62.5t102.5 43t103.5 27.5l106 19l41 -131q-183 -26 -242 -51q-185 -76 -186 -336v-65h357v-113h-357v-555h555v-123z" />
    <glyph glyph-name="currency" unicode="&#xa4;" 
d="M1047 1292l-39 -131q-152 70 -285 70q-166 0 -250 -98.5t-113 -272.5h568l-37 -119h-543q-2 -27 -2 -77q0 -12 1 -34t1 -32h504l-35 -117h-459q25 -188 106 -293.5t247 -105.5q47 0 103 13.5t84 24.5l106 42v-150q-156 -47 -293 -47q-438 0 -508 516h-203l35 117h158
q0 10 -1.5 31.5t-1.5 32.5q0 53 3 79h-193l35 119h170q76 487 518 488q162 -1 324 -56z" />
    <glyph glyph-name="yen" unicode="&#xa5;" 
d="M985 1325l-381 -690h277v-113h-299v-145h299v-113h-299v-264h-150v264h-297v113h297v145h-297v113h271l-394 690h168l332 -594l319 594h154z" />
    <glyph glyph-name="brokenbar" unicode="&#xa6;" horiz-adv-x="499" 
d="M313 735h-129v479h129v-479zM313 -160h-129v479h129v-479z" />
    <glyph glyph-name="section" unicode="&#xa7;" horiz-adv-x="935" 
d="M815 649q0 -145 -137 -207q100 -68 100 -200q0 -135 -98 -205t-246 -70q-164 0 -301 60l49 118q6 -2 43 -18l43 -18.5t35 -12.5t43 -12t40 -5t52 -3q197 0 197 164q0 66 -53.5 105.5t-129 61t-150.5 47t-128 81t-53 143.5q0 162 139 223q-106 63 -106 182q0 137 99 201
t247 64q121 0 270 -64l-47 -117q-49 27 -71.5 38.5t-63.5 22.5t-86 11q-205 0 -205 -149q0 -53 53 -86t130 -54.5t153 -50.5t129 -91.5t53 -158.5zM672 647q0 37 -12.5 63.5t-48.5 47t-54 29t-81.5 28t-78.5 23.5q-133 -23 -133 -156q0 -31 15.5 -54.5t49 -40t63.5 -27.5
t81 -26.5t80 -25.5q119 39 119 139z" />
    <glyph glyph-name="dieresis" unicode="&#xa8;" horiz-adv-x="573" 
d="M434 1176h-133v149h133v-149zM125 1176h-133v149h133v-149z" />
    <glyph glyph-name="copyright" unicode="&#xa9;" horiz-adv-x="1474" 
d="M1423 664q0 -289 -198.5 -486.5t-487 -197.5t-487.5 197.5t-199 486t199 486.5t487 198q293 0 489.5 -196.5t196.5 -487.5zM1323 664q0 248 -170 422t-416 174q-248 0 -416.5 -174.5t-168.5 -421.5q0 -244 171 -420t414.5 -176t414.5 176t171 420zM948 281
q-117 -39 -219 -39q-178 0 -263 112.5t-85 304.5q0 184 84 298t270 114q102 0 205 -33l-33 -88q-100 41 -172 41q-252 0 -252 -329q0 -340 246 -340q70 0 189 47z" />
    <glyph glyph-name="ordfeminine" unicode="&#xaa;" 
d="M733 801h-84q0 4 -10 28.5t-10 30.5q-55 -72 -156 -72q-90 0 -147.5 37t-57.5 111q0 86 66.5 134t234.5 48h54v33q0 55 -25 80.5t-86 25.5q-98 0 -193 -43l-28 74q113 39 221 39q90 0 146.5 -41t56.5 -123v-205q0 -14 18 -157zM625 934v117h-39q-125 0 -174.5 -25
t-49.5 -88q0 -82 119 -82q95 0 144 78z" />
    <glyph glyph-name="guillemotleft" unicode="&#xab;" horiz-adv-x="745" 
d="M682 926l-199 -369l197 -369h-129l-191 365l191 373h131zM389 926l-199 -369l197 -369h-129l-190 365l190 373h131z" />
    <glyph glyph-name="logicalnot" unicode="&#xac;" 
d="M946 221h-129v365h-776v112h905v-477z" />
    <glyph glyph-name="registered" unicode="&#xae;" horiz-adv-x="1474" 
d="M1423 664q0 -289 -198.5 -486.5t-487 -197.5t-487.5 197.5t-199 486t199 486.5t487 198q293 0 489.5 -196.5t196.5 -487.5zM1323 664q0 248 -170 422t-416 174q-248 0 -416.5 -174.5t-168.5 -421.5q0 -244 171 -420t414.5 -176t414.5 176t171 420zM1055 264h-121
l-277 354h-75v-354h-99v797h260q115 0 191 -51.5t76 -163.5q0 -94 -56.5 -157.5t-181.5 -70.5zM907 846q0 135 -157 135h-168v-285h170q155 0 155 150z" />
    <glyph glyph-name="macron" unicode="&#xaf;" horiz-adv-x="425" 
d="M451 1159h-476v121h476v-121z" />
    <glyph glyph-name="degree" unicode="&#xb0;" horiz-adv-x="798" 
d="M700 958q0 -127 -89 -208.5t-214 -81.5t-212 81.5t-87 208.5t88 213t213 86t213 -86t88 -213zM588 958q0 84 -53.5 139.5t-135.5 55.5t-135 -55.5t-53 -139.5q0 -76 56.5 -131t129.5 -55q76 0 133.5 55t57.5 131z" />
    <glyph glyph-name="plusminus" unicode="&#xb1;" 
d="M926 506h-363v-260h-129v260h-360v112h360v250h129v-250h363v-112zM926 2h-854v119h854v-119z" />
    <glyph glyph-name="uni00B2" unicode="&#xb2;" horiz-adv-x="679" 
d="M588 649h-465l-29 74q18 16 103.5 85t135.5 113t98 108.5t48 111.5q0 74 -38 102.5t-117.5 28.5t-182.5 -51l-28 82q117 45 213 45q111 0 183.5 -51.5t72.5 -155.5q0 -45 -25 -93.5t-71 -95.5t-85 -80.5l-99 -81l-81 -63.5h367v-78z" />
    <glyph glyph-name="uni00B3" unicode="&#xb3;" horiz-adv-x="679" 
d="M580 827q0 -102 -80 -148t-197 -46t-201 26l29 82q100 -35 176 -34q170 0 170 120q0 86 -60.5 116t-176.5 30v71q109 0 164 25t55 98q0 63 -36 84t-106 21q-61 0 -172 -49l-28 82q92 43 202.5 43t176 -45.5t65.5 -133.5q0 -74 -46 -112.5t-120 -46.5q185 -27 185 -183z
" />
    <glyph glyph-name="acute" unicode="&#xb4;" horiz-adv-x="425" 
d="M387 1325l-242 -240h-106l197 240h151z" />
    <glyph glyph-name="mu" unicode="&#xb5;" 
d="M868 0h-116l-31 139q0 -2 -24.5 -32.5t-40 -45t-45 -38t-66.5 -35t-78 -11.5q-121 0 -184 64v-410h-136v1305h136v-582q0 -84 12 -137t58 -94t130 -41q82 0 140.5 66.5t91.5 152.5v635h135v-737q0 -45 8 -114t10 -85z" />
    <glyph glyph-name="paragraph" unicode="&#xb6;" horiz-adv-x="1105" 
d="M991 -385h-129v1597h-207q-98 0 -159.5 -60t-61.5 -177q0 -88 60.5 -148.5t140.5 -81.5v-1130h-129v1022q-180 14 -261 112.5t-81 227.5q0 47 8 91t32.5 92t64.5 83t111 58.5t163 23.5h448v-1710z" />
    <glyph glyph-name="periodcentered" unicode="&#xb7;" horiz-adv-x="499" 
d="M336 492h-172v178h172v-178z" />
    <glyph glyph-name="cedilla" unicode="&#xb8;" horiz-adv-x="425" 
d="M401 -195q0 -84 -56 -132t-152 -48q-68 0 -187 17l37 104q115 -14 139 -14q41 0 70 17.5t29 51.5q0 37 -31 52.5t-133 15.5l43 162h114l-20 -92q70 0 108.5 -41.5t38.5 -92.5z" />
    <glyph glyph-name="uni00B9" unicode="&#xb9;" horiz-adv-x="679" 
d="M432 641h-102v582l-137 -111l-31 78l176 135h94v-684z" />
    <glyph glyph-name="ordmasculine" unicode="&#xba;" 
d="M750 1079q0 -272 -248 -272q-131 0 -191.5 74.5t-60.5 197.5q0 117 60.5 193t191.5 76q248 -1 248 -269zM657 1079q0 100 -35.5 149.5t-119.5 49.5q-160 0 -160 -199q0 -203 160 -202q155 -1 155 202z" />
    <glyph glyph-name="guillemotright" unicode="&#xbb;" horiz-adv-x="745" 
d="M678 553l-191 -365h-129l197 369l-199 369h131zM385 553l-190 -365h-129l196 369l-199 369h132z" />
    <glyph glyph-name="onequarter" unicode="&#xbc;" horiz-adv-x="1511" 
d="M1296 182h-108v-182h-101v182h-296l-33 76l332 426h98v-426h108v-76zM1108 1288l-750 -1288h-122l743 1288h129zM401 641h-100v582l-139 -111l-29 78l174 135h94v-684zM1087 258v315l-243 -315h243z" />
    <glyph glyph-name="onehalf" unicode="&#xbd;" horiz-adv-x="1511" 
d="M1364 0h-463l-31 80q23 20 105 84.5l134 108.5t100 107.5t48 111.5q0 74 -37.5 102.5t-117.5 28.5q-82 0 -184 -52l-29 84q111 43 215 43q111 0 182.5 -51t71.5 -155q0 -45 -23.5 -93.5t-70.5 -95.5t-85 -81t-99.5 -81t-80.5 -63h365v-78zM1104 1288l-742 -1288h-131
l742 1288h131zM399 641h-102v582l-137 -111l-31 78l176 135h94v-684z" />
    <glyph glyph-name="threequarters" unicode="&#xbe;" horiz-adv-x="1511" 
d="M1343 182h-108v-182h-100v182h-297l-33 76l332 426h98v-426h108v-76zM1163 1288l-743 -1288h-127l741 1288h129zM571 827q0 -102 -79.5 -148t-194.5 -46q-119 0 -203 26l31 82q100 -35 176 -34q168 0 168 120q0 86 -59.5 116t-176.5 30v71q109 0 163.5 25t54.5 98
q0 63 -36 84t-104 21q-61 0 -172 -49l-30 82q92 43 204 43q111 0 175.5 -45.5t64.5 -133.5q0 -141 -164 -159q182 -27 182 -183zM1135 258v315l-244 -315h244z" />
    <glyph glyph-name="questiondown" unicode="&#xbf;" horiz-adv-x="839" 
d="M586 1153h-162v172h162v-172zM778 41q-176 -61 -307 -61q-367 0 -367 315q0 68 34 124t83 97l98.5 81t83 92t33.5 112v188h139v-198q0 -78 -33.5 -139.5t-80.5 -101.5t-94.5 -76t-81 -81t-33.5 -98q0 -106 52 -152.5t167 -46.5q127 0 270 72z" />
    <glyph glyph-name="Agrave" unicode="&#xc0;" horiz-adv-x="1294" 
d="M1229 0h-168l-141 395h-545l-150 -395h-157l538 1325h123zM881 508l-222 629l-241 -629h463zM850 1401h-107l-241 239h157z" />
    <glyph glyph-name="Aacute" unicode="&#xc1;" horiz-adv-x="1294" 
d="M1229 0h-168l-141 395h-545l-150 -395h-157l538 1325h123zM881 508l-222 629l-241 -629h463zM838 1636l-242 -239h-107l197 239h152z" />
    <glyph glyph-name="Acircumflex" unicode="&#xc2;" horiz-adv-x="1294" 
d="M1229 0h-168l-141 395h-545l-150 -395h-157l538 1325h123zM881 508l-222 629l-241 -629h463zM901 1432h-110l-127 143l-132 -143h-110l182 225h119z" />
    <glyph glyph-name="Atilde" unicode="&#xc3;" horiz-adv-x="1294" 
d="M1229 0h-168l-141 395h-545l-150 -395h-157l538 1325h123zM881 508l-222 629l-241 -629h463zM948 1546q-47 -135 -176 -135q-39 0 -102.5 40t-94.5 40q-66 0 -94 -88l-90 39q33 78 74 107.5t113 29.5q37 0 100 -38t90 -38q61 0 90 84z" />
    <glyph glyph-name="Adieresis" unicode="&#xc4;" horiz-adv-x="1294" 
d="M1229 0h-168l-141 395h-545l-150 -395h-157l538 1325h123zM881 508l-222 629l-241 -629h463zM885 1411h-133v150h133v-150zM575 1411h-133v150h133v-150z" />
    <glyph glyph-name="Aring" unicode="&#xc5;" horiz-adv-x="1294" 
d="M1229 0h-168l-141 395h-545l-150 -395h-157l538 1325h123zM881 508l-222 629l-241 -629h463zM858 1542q0 -70 -49 -119t-121 -49q-70 0 -120 49.5t-50 119t49 118.5t121 49t121 -48t49 -120zM786 1544q0 43 -26.5 72t-71.5 29q-43 0 -71.5 -31t-28.5 -70
q0 -37 28.5 -68.5t71.5 -31.5q47 0 72.5 29.5t25.5 70.5z" />
    <glyph glyph-name="AE" unicode="&#xc6;" horiz-adv-x="1843" 
d="M1698 0h-649l-68 395h-526l-219 -395h-168l751 1325h860v-117h-696l84 -465h569v-116h-546l92 -510h516v-117zM961 508l-107 622l-340 -622h447z" />
    <glyph glyph-name="Ccedilla" unicode="&#xc7;" horiz-adv-x="1112" 
d="M1030 25q-164 -57 -317 -60l-4 -26q70 0 109.5 -41t39.5 -93q0 -84 -56.5 -132t-154.5 -48q-68 0 -186 17l35 106q131 -16 141 -16q41 0 69.5 17.5t28.5 51.5q0 37 -30.5 52.5t-133.5 15.5l27 102q-469 51 -469 691q0 145 28.5 263.5t91 216t176.5 152t269 54.5
q170 0 322 -50l-51 -131q-147 63 -271 64q-410 0 -409 -567q0 -582 397 -582q115 0 297 74z" />
    <glyph glyph-name="Egrave" unicode="&#xc8;" horiz-adv-x="1097" 
d="M952 0h-751v1325h733v-117h-584v-465h541v-116h-541v-510h602v-117zM715 1403h-107l-241 239h151z" />
    <glyph glyph-name="Eacute" unicode="&#xc9;" horiz-adv-x="1097" 
d="M952 0h-751v1325h733v-117h-584v-465h541v-116h-541v-510h602v-117zM772 1626l-242 -240h-106l197 240h151z" />
    <glyph glyph-name="Ecircumflex" unicode="&#xca;" horiz-adv-x="1097" 
d="M952 0h-751v1325h733v-117h-584v-465h541v-116h-541v-510h602v-117zM811 1411h-111l-127 143l-131 -143h-110l182 225h119z" />
    <glyph glyph-name="Edieresis" unicode="&#xcb;" horiz-adv-x="1097" 
d="M952 0h-751v1325h733v-117h-584v-465h541v-116h-541v-510h602v-117zM797 1411h-133v150h133v-150zM487 1411h-133v150h133v-150z" />
    <glyph glyph-name="Igrave" unicode="&#xcc;" horiz-adv-x="501" 
d="M330 0h-150v1325h150v-1325zM410 1417h-107l-242 240h119z" />
    <glyph glyph-name="Iacute" unicode="&#xcd;" horiz-adv-x="501" 
d="M326 0h-150v1325h150v-1325zM432 1657l-242 -240h-106l197 240h151z" />
    <glyph glyph-name="Icircumflex" unicode="&#xce;" horiz-adv-x="501" 
d="M326 0h-150v1325h150v-1325zM492 1427h-111l-127 144l-131 -144h-111l183 226h118z" />
    <glyph glyph-name="Idieresis" unicode="&#xcf;" horiz-adv-x="501" 
d="M328 0h-150v1325h150v-1325zM473 1440h-133v149h133v-149zM164 1440h-133v149h133v-149z" />
    <glyph glyph-name="Eth" unicode="&#xd0;" horiz-adv-x="1286" 
d="M1157 667.5q0 -358.5 -147.5 -513t-485.5 -154.5h-323v694h-142v111h142v520h323q344 0 488.5 -149.5t144.5 -508zM1001 666q0 305 -107.5 423.5t-369.5 118.5h-174v-403h307v-111h-307v-577h193q236 0 347 132t111 417z" />
    <glyph glyph-name="Ntilde" unicode="&#xd1;" horiz-adv-x="1380" 
d="M1180 0h-217l-625 1149v-1149h-137v1325h213l620 -1149v1149h146v-1325zM946 1542q-47 -135 -176 -135q-39 0 -102.5 40t-94.5 40q-66 0 -94 -88l-90 39q33 78 74 107.5t112 29.5q37 0 100.5 -38t90.5 -38q61 0 90 84z" />
    <glyph glyph-name="Ograve" unicode="&#xd2;" horiz-adv-x="1392" 
d="M1264 657q0 -319 -133.5 -505.5t-430.5 -186.5q-129 0 -228 35t-163.5 95.5t-105.5 148.5t-57.5 189.5t-16.5 223.5q0 205 53.5 354.5t184.5 243t335 93.5q158 0 269.5 -51.5t174 -146.5t90.5 -216t28 -277zM1108 657q0 283 -92 428.5t-316 145.5q-225 0 -320 -146.5
t-95 -427t95 -428t320.5 -147.5t316.5 148t91 427zM815 1403h-106l-242 239h151z" />
    <glyph glyph-name="Oacute" unicode="&#xd3;" horiz-adv-x="1392" 
d="M1264 657q0 -319 -133.5 -505.5t-430.5 -186.5q-129 0 -228 35t-163.5 95.5t-105.5 148.5t-57.5 189.5t-16.5 223.5q0 205 53.5 354.5t184.5 243t335 93.5q158 0 269.5 -51.5t174 -146.5t90.5 -216t28 -277zM1108 657q0 283 -92 428.5t-316 145.5q-225 0 -320 -146.5
t-95 -427t95 -428t320.5 -147.5t316.5 148t91 427zM924 1636l-242 -239h-107l197 239h152z" />
    <glyph glyph-name="Ocircumflex" unicode="&#xd4;" horiz-adv-x="1392" 
d="M1264 657q0 -319 -133.5 -505.5t-430.5 -186.5q-129 0 -228 35t-163.5 95.5t-105.5 148.5t-57.5 189.5t-16.5 223.5q0 205 53.5 354.5t184.5 243t335 93.5q158 0 269.5 -51.5t174 -146.5t90.5 -216t28 -277zM1108 657q0 283 -92 428.5t-316 145.5q-225 0 -320 -146.5
t-95 -427t95 -428t320.5 -147.5t316.5 148t91 427zM938 1411h-111l-127 143l-131 -143h-110l182 225h119z" />
    <glyph glyph-name="Otilde" unicode="&#xd5;" horiz-adv-x="1392" 
d="M1264 657q0 -319 -133.5 -505.5t-430.5 -186.5q-129 0 -228 35t-163.5 95.5t-105.5 148.5t-57.5 189.5t-16.5 223.5q0 205 53.5 354.5t184.5 243t335 93.5q158 0 269.5 -51.5t174 -146.5t90.5 -216t28 -277zM1108 657q0 283 -92 428.5t-316 145.5q-225 0 -320 -146.5
t-95 -427t95 -428t320.5 -147.5t316.5 148t91 427zM977 1542q-47 -135 -176 -135q-39 0 -102.5 40t-94.5 40q-66 0 -94 -88l-90 39q33 78 74 107.5t112 29.5q37 0 100.5 -38t90.5 -38q61 0 90 84z" />
    <glyph glyph-name="Odieresis" unicode="&#xd6;" horiz-adv-x="1392" 
d="M1264 657q0 -319 -133.5 -505.5t-430.5 -186.5q-129 0 -228 35t-163.5 95.5t-105.5 148.5t-57.5 189.5t-16.5 223.5q0 205 53.5 354.5t184.5 243t335 93.5q158 0 269.5 -51.5t174 -146.5t90.5 -216t28 -277zM1108 657q0 283 -92 428.5t-316 145.5q-225 0 -320 -146.5
t-95 -427t95 -428t320.5 -147.5t316.5 148t91 427zM920 1411h-134v150h134v-150zM610 1411h-133v150h133v-150z" />
    <glyph glyph-name="multiply" unicode="&#xd7;" 
d="M901 152l-90 -91l-309 312l-312 -312l-90 91l312 311l-312 309l90 90l312 -311l309 311l90 -90l-311 -309z" />
    <glyph glyph-name="Oslash" unicode="&#xd8;" horiz-adv-x="1392" 
d="M1335 1323l-170 -201q98 -166 99 -465q0 -319 -133.5 -505.5t-430.5 -186.5q-260 0 -397 144l-172 -203l-98 92l184 217q-88 164 -88 442q0 205 53.5 354.5t184.5 243t335 93.5q238 0 373 -123l162 188zM987 1120q-100 111 -287 111q-225 0 -320 -146.5t-95 -427.5
q0 -199 41 -315zM1108 657q0 213 -51 338l-664 -780q100 -133 307 -133q225 0 316.5 148t91.5 427z" />
    <glyph glyph-name="Ugrave" unicode="&#xd9;" horiz-adv-x="1388" 
d="M1188 485q0 -264 -118 -392t-361 -128q-266 0 -387 128t-121 396v836h149v-815q0 -244 84 -336t275 -92q174 0 251.5 97t77.5 331v815h150v-840zM829 1403h-106l-242 239h152z" />
    <glyph glyph-name="Uacute" unicode="&#xda;" horiz-adv-x="1388" 
d="M1188 485q0 -264 -118 -392t-361 -128q-266 0 -387 128t-121 396v836h149v-815q0 -244 84 -336t275 -92q174 0 251.5 97t77.5 331v815h150v-840zM901 1630l-242 -239h-106l197 239h151z" />
    <glyph glyph-name="Ucircumflex" unicode="&#xdb;" horiz-adv-x="1388" 
d="M1188 485q0 -264 -118 -392t-361 -128q-266 0 -387 128t-121 396v836h149v-815q0 -244 84 -336t275 -92q174 0 251.5 97t77.5 331v815h150v-840zM930 1411h-111l-127 143l-131 -143h-110l182 225h119z" />
    <glyph glyph-name="Udieresis" unicode="&#xdc;" horiz-adv-x="1388" 
d="M1188 485q0 -264 -118 -392t-361 -128q-266 0 -387 128t-121 396v836h149v-815q0 -244 84 -336t275 -92q174 0 251.5 97t77.5 331v815h150v-840zM926 1411h-133v150h133v-150zM616 1411h-133v150h133v-150z" />
    <glyph glyph-name="Yacute" unicode="&#xdd;" horiz-adv-x="1150" 
d="M1118 1325l-461 -729v-596h-149v588l-475 737h170l387 -598l371 598h157zM770 1657l-242 -240h-106l196 240h152z" />
    <glyph glyph-name="Thorn" unicode="&#xde;" horiz-adv-x="1136" 
d="M1026 670q0 -389 -420 -389h-256v-281h-149v1325h149v-278h234q213 0 327.5 -88t114.5 -289zM872 670q0 150 -72.5 205t-219.5 55h-230v-533h240q143 0 212.5 60.5t69.5 212.5z" />
    <glyph glyph-name="germandbls" unicode="&#xdf;" horiz-adv-x="1011" 
d="M911 283q0 -399 -497 -400l43 115q322 0 321 289q0 68 -27.5 126t-65.5 96t-91 69.5t-94 47t-82 27.5v109q45 29 66.5 45t70.5 58t72.5 90.5t23.5 101.5q0 92 -58 138t-132 46q-100 0 -142.5 -55.5t-42.5 -198.5v-987h-133v965q0 197 75 289t243 92q139 0 232 -74
t93 -221q0 -39 -10 -76t-31.5 -67.5t-41 -55.5t-50 -48.5l-47 -35.5t-44 -29.5l-30.5 -19.5q157 -65 225 -118q154 -122 154 -318z" />
    <glyph glyph-name="agrave" unicode="&#xe0;" horiz-adv-x="980" 
d="M852 0h-119q0 6 -16.5 52t-18.5 59q-39 -55 -108.5 -94.5t-153.5 -39.5q-152 0 -246 67t-94 202q0 156 110.5 239.5t391.5 83.5h90v72q0 213 -186 213q-152 0 -320 -82l-47 115q190 72 369 71q150 0 234.5 -75.5t84.5 -225.5v-370q0 -19 29 -287zM690 207v262h-63
q-217 0 -303 -51t-86 -168q0 -78 56 -123t157 -45q167 0 239 125zM569 1085h-106l-242 240h152z" />
    <glyph glyph-name="aacute" unicode="&#xe1;" horiz-adv-x="980" 
d="M852 0h-119q0 6 -16.5 52t-18.5 59q-39 -55 -108.5 -94.5t-153.5 -39.5q-152 0 -246 67t-94 202q0 156 110.5 239.5t391.5 83.5h90v72q0 213 -186 213q-152 0 -320 -82l-47 115q190 72 369 71q150 0 234.5 -75.5t84.5 -225.5v-370q0 -19 29 -287zM690 207v262h-63
q-217 0 -303 -51t-86 -168q0 -78 56 -123t157 -45q167 0 239 125zM692 1325l-241 -240h-107l197 240h151z" />
    <glyph glyph-name="acircumflex" unicode="&#xe2;" horiz-adv-x="980" 
d="M852 0h-119q0 6 -16.5 52t-18.5 59q-39 -55 -108.5 -94.5t-153.5 -39.5q-152 0 -246 67t-94 202q0 156 110.5 239.5t391.5 83.5h90v72q0 213 -186 213q-152 0 -320 -82l-47 115q190 72 369 71q150 0 234.5 -75.5t84.5 -225.5v-370q0 -19 29 -287zM690 207v262h-63
q-217 0 -303 -51t-86 -168q0 -78 56 -123t157 -45q167 0 239 125zM700 1100h-110l-127 143l-131 -143h-111l182 225h119z" />
    <glyph glyph-name="atilde" unicode="&#xe3;" horiz-adv-x="980" 
d="M852 0h-119q0 6 -16.5 52t-18.5 59q-39 -55 -108.5 -94.5t-153.5 -39.5q-152 0 -246 67t-94 202q0 156 110.5 239.5t391.5 83.5h90v72q0 213 -186 213q-152 0 -320 -82l-47 115q190 72 369 71q150 0 234.5 -75.5t84.5 -225.5v-370q0 -19 29 -287zM690 207v262h-63
q-217 0 -303 -51t-86 -168q0 -78 56 -123t157 -45q167 0 239 125zM739 1239q-47 -135 -176 -135q-39 0 -102.5 40t-93.5 40q-66 0 -95 -88l-90 39q33 78 74 107.5t113 29.5q37 0 100 -38t90 -38q61 0 90 84z" />
    <glyph glyph-name="adieresis" unicode="&#xe4;" horiz-adv-x="980" 
d="M852 0h-119q0 6 -16.5 52t-18.5 59q-39 -55 -108.5 -94.5t-153.5 -39.5q-152 0 -246 67t-94 202q0 156 110.5 239.5t391.5 83.5h90v72q0 213 -186 213q-152 0 -320 -82l-47 115q190 72 369 71q150 0 234.5 -75.5t84.5 -225.5v-370q0 -19 29 -287zM690 207v262h-63
q-217 0 -303 -51t-86 -168q0 -78 56 -123t157 -45q167 0 239 125zM709 1112h-136v158h136v-158zM395 1112h-133v158h133v-158z" />
    <glyph glyph-name="aring" unicode="&#xe5;" horiz-adv-x="980" 
d="M852 0h-119q0 6 -16.5 52t-18.5 59q-39 -55 -108.5 -94.5t-153.5 -39.5q-152 0 -246 67t-94 202q0 156 110.5 239.5t391.5 83.5h90v72q0 213 -186 213q-152 0 -320 -82l-47 115q190 72 369 71q150 0 234.5 -75.5t84.5 -225.5v-370q0 -19 29 -287zM690 207v262h-63
q-217 0 -303 -51t-86 -168q0 -78 56 -123t157 -45q167 0 239 125zM662 1206q0 -70 -49.5 -119t-120.5 -49q-70 0 -120 49.5t-50 119t49 118.5t120.5 49t121 -48t49.5 -120zM590 1208q0 43 -26.5 72t-71.5 29q-43 0 -72 -31t-29 -70q0 -37 29 -68.5t72 -31.5q47 0 72.5 29.5
t25.5 70.5z" />
    <glyph glyph-name="ae" unicode="&#xe6;" horiz-adv-x="1572" 
d="M1473 422h-646q10 -342 273 -342q131 0 280 80l43 -111q-152 -72 -340 -72q-119 0 -201.5 52.5t-119.5 132.5q-131 -184 -326 -185q-152 0 -246 67t-94 202q0 156 110.5 239.5t391.5 83.5h96v72q0 213 -192 213q-152 0 -320 -82l-47 115q190 72 369 71q213 0 280 -157
q96 158 291 157q223 0 310.5 -137t87.5 -399zM1339 526q-4 168 -67.5 248t-194.5 80q-111 0 -177 -84t-75 -244h514zM694 231v234h-67q-217 0 -303 -49t-86 -166q0 -78 56 -123t157 -45q76 0 142 44t101 105z" />
    <glyph glyph-name="ccedilla" unicode="&#xe7;" horiz-adv-x="866" 
d="M770 29q-98 -39 -219 -49l-10 -41q70 0 108.5 -42t38.5 -92q0 -78 -56.5 -128t-150.5 -50q-82 0 -186 15l16 102q131 -16 160 -16q41 0 71.5 19.5t30.5 53.5q0 37 -32.5 53.5t-134.5 16.5l30 113q-166 25 -253 151.5t-87 325.5q0 233 106.5 363t313.5 130q123 0 246 -51
l-27 -123q-109 72 -221 72q-281 0 -281 -391q0 -172 71 -274.5t208 -102.5q106 0 229 74z" />
    <glyph glyph-name="egrave" unicode="&#xe8;" horiz-adv-x="985" 
d="M885 422h-645q10 -342 272 -342q141 0 291 80l41 -111q-152 -72 -348 -72q-201 0 -300.5 135.5t-99.5 346.5q0 88 19.5 171t61.5 159.5t122 122.5t188 46q219 0 308.5 -139t89.5 -397zM752 526q-4 168 -67.5 248t-195.5 80q-111 0 -177 -84t-74 -244h514zM600 1085h-106
l-242 240h151z" />
    <glyph glyph-name="eacute" unicode="&#xe9;" horiz-adv-x="985" 
d="M885 422h-645q10 -342 272 -342q141 0 291 80l41 -111q-152 -72 -348 -72q-201 0 -300.5 135.5t-99.5 346.5q0 88 19.5 171t61.5 159.5t122 122.5t188 46q219 0 308.5 -139t89.5 -397zM752 526q-4 168 -67.5 248t-195.5 80q-111 0 -177 -84t-74 -244h514zM692 1325
l-241 -240h-107l197 240h151z" />
    <glyph glyph-name="ecircumflex" unicode="&#xea;" horiz-adv-x="985" 
d="M885 422h-645q10 -342 272 -342q141 0 291 80l41 -111q-152 -72 -348 -72q-201 0 -300.5 135.5t-99.5 346.5q0 88 19.5 171t61.5 159.5t122 122.5t188 46q219 0 308.5 -139t89.5 -397zM752 526q-4 168 -67.5 248t-195.5 80q-111 0 -177 -84t-74 -244h514zM729 1100h-111
l-126 143l-132 -143h-110l182 225h119z" />
    <glyph glyph-name="edieresis" unicode="&#xeb;" horiz-adv-x="985" 
d="M885 422h-645q10 -342 272 -342q141 0 291 80l41 -111q-152 -72 -348 -72q-201 0 -300.5 135.5t-99.5 346.5q0 88 19.5 171t61.5 159.5t122 122.5t188 46q219 0 308.5 -139t89.5 -397zM752 526q-4 168 -67.5 248t-195.5 80q-111 0 -177 -84t-74 -244h514zM725 1135h-133
v149h133v-149zM416 1135h-133v149h133v-149z" />
    <glyph glyph-name="igrave" unicode="&#xec;" horiz-adv-x="425" 
d="M377 1085h-107l-241 240h151zM281 0h-134v936h134v-936z" />
    <glyph glyph-name="iacute" unicode="&#xed;" horiz-adv-x="425" 
d="M389 1325l-242 -240h-106l197 240h151zM283 0h-133v936h133v-936z" />
    <glyph glyph-name="icircumflex" unicode="&#xee;" horiz-adv-x="425" 
d="M453 1100h-111l-127 143l-131 -143h-111l183 225h118zM279 0h-134v936h134v-936z" />
    <glyph glyph-name="idieresis" unicode="&#xef;" horiz-adv-x="425" 
d="M434 1163h-133v150h133v-150zM125 1163h-133v150h133v-150zM283 0h-133v936h133v-936z" />
    <glyph glyph-name="eth" unicode="&#xf0;" horiz-adv-x="997" 
d="M905 580q0 -100 -9 -181.5t-37 -164t-74 -139t-122.5 -91.5t-179.5 -35q-172 0 -281.5 124t-109.5 300q0 195 98.5 308.5t284.5 113.5q88 0 168 -56.5t123 -148.5q0 379 -225 523l-176 -119l-109 63l162 109q-74 31 -191 47l-53 133q219 -25 367 -96l155 106l107 -63
l-156 -105q258 -188 258 -628zM748 498q-80 205 -269 204q-236 0 -235 -309q0 -143 65.5 -226t171.5 -83q135 0 201 92.5t66 321.5z" />
    <glyph glyph-name="ntilde" unicode="&#xf1;" horiz-adv-x="1001" 
d="M858 0h-133v582q0 61 -7 104t-27.5 84t-63.5 62.5t-109 21.5q-84 0 -148.5 -61.5t-93.5 -137.5v-655h-133v737q0 45 -8 114t-10 85h117l28 -139l18 21q17 22 26.5 30t30 29.5t37.5 32t43 23.5t53.5 19t58.5 6q176 0 248.5 -96t72.5 -272v-590zM786 1239
q-47 -135 -176 -135q-39 0 -102.5 40t-93.5 40q-66 0 -95 -88l-90 39q33 78 74 107.5t113 29.5q37 0 100.5 -38t89.5 -38q61 0 90 84z" />
    <glyph glyph-name="ograve" unicode="&#xf2;" horiz-adv-x="1017" 
d="M922 473q0 -223 -96.5 -359.5t-315.5 -136.5t-316.5 135.5t-97.5 360.5q0 215 98.5 350t315.5 135q412 0 412 -485zM782 473q0 184 -61.5 282.5t-210.5 98.5q-274 0 -274 -381q0 -391 274 -391q150 0 211 101.5t61 289.5zM645 1085h-106l-242 240h152z" />
    <glyph glyph-name="oacute" unicode="&#xf3;" horiz-adv-x="1017" 
d="M922 473q0 -223 -96.5 -359.5t-315.5 -136.5t-316.5 135.5t-97.5 360.5q0 215 98.5 350t315.5 135q412 0 412 -485zM782 473q0 184 -61.5 282.5t-210.5 98.5q-274 0 -274 -381q0 -391 274 -391q150 0 211 101.5t61 289.5zM707 1325l-242 -240h-107l197 240h152z" />
    <glyph glyph-name="ocircumflex" unicode="&#xf4;" horiz-adv-x="1017" 
d="M922 473q0 -223 -96.5 -359.5t-315.5 -136.5t-316.5 135.5t-97.5 360.5q0 215 98.5 350t315.5 135q412 0 412 -485zM782 473q0 184 -61.5 282.5t-210.5 98.5q-274 0 -274 -381q0 -391 274 -391q150 0 211 101.5t61 289.5zM752 1100h-111l-127 143l-131 -143h-111l183 225
h118z" />
    <glyph glyph-name="otilde" unicode="&#xf5;" horiz-adv-x="1017" 
d="M922 473q0 -223 -96.5 -359.5t-315.5 -136.5t-316.5 135.5t-97.5 360.5q0 215 98.5 350t315.5 135q412 0 412 -485zM782 473q0 184 -61.5 282.5t-210.5 98.5q-274 0 -274 -381q0 -391 274 -391q150 0 211 101.5t61 289.5zM766 1239q-47 -135 -176 -135q-39 0 -102.5 40
t-94.5 40q-66 0 -94 -88l-90 39q33 78 74 107.5t112 29.5q37 0 100.5 -38t90.5 -38q61 0 90 84z" />
    <glyph glyph-name="odieresis" unicode="&#xf6;" horiz-adv-x="1017" 
d="M922 473q0 -223 -96.5 -359.5t-315.5 -136.5t-316.5 135.5t-97.5 360.5q0 215 98.5 350t315.5 135q412 0 412 -485zM782 473q0 184 -61.5 282.5t-210.5 98.5q-274 0 -274 -381q0 -391 274 -391q150 0 211 101.5t61 289.5zM725 1135h-133v149h133v-149zM416 1135h-133v149
h133v-149z" />
    <glyph glyph-name="divide" unicode="&#xf7;" 
d="M580 715h-160v170h160v-170zM926 391h-854v111h854v-111zM580 33h-160v170h160v-170z" />
    <glyph glyph-name="oslash" unicode="&#xf8;" horiz-adv-x="1017" 
d="M999 893l-129 -139q51 -111 52 -281q0 -223 -96.5 -359.5t-315.5 -136.5q-170 0 -270 91l-117 -123l-96 92l129 135q-59 117 -60 301q0 215 98.5 350t315.5 135q182 0 278 -100l117 125zM705 768q-66 86 -195 86q-274 0 -274 -381q0 -115 24 -188zM782 473q0 100 -16 166
l-442 -481q66 -76 186 -76q150 0 211 101.5t61 289.5z" />
    <glyph glyph-name="ugrave" unicode="&#xf9;" horiz-adv-x="989" 
d="M627 1085h-107l-241 240h151zM864 0h-116l-31 139q-2 -4 -20.5 -26.5t-30 -34.5t-37 -35t-48 -34t-55 -21.5t-67.5 -10.5q-315 0 -316 369v590h133v-582q0 -84 12.5 -137t58.5 -94t130 -41t143.5 60.5t90.5 138.5v655h133v-737q0 -45 9 -110.5t11 -88.5z" />
    <glyph glyph-name="uacute" unicode="&#xfa;" horiz-adv-x="989" 
d="M831 0h-116l-31 139q-2 -4 -20.5 -26.5t-29.5 -34.5t-37 -35t-48.5 -34t-55 -21.5t-67.5 -10.5q-315 0 -315 369v590h133v-582q0 -84 12 -137t58 -94t130 -41t143.5 60.5t90.5 138.5v655h133v-737q0 -45 9 -110.5t11 -88.5zM655 1325l-241 -240h-107l197 240h151z" />
    <glyph glyph-name="ucircumflex" unicode="&#xfb;" horiz-adv-x="989" 
d="M864 0h-116l-31 139q-2 -4 -20.5 -26.5t-30 -34.5t-37 -35t-48 -34t-55 -21.5t-67.5 -10.5q-315 0 -316 369v590h133v-582q0 -84 12.5 -137t58.5 -94t130 -41t143.5 60.5t90.5 138.5v655h133v-737q0 -45 9 -110.5t11 -88.5zM735 1100h-110l-127 143l-131 -143h-111
l182 225h119z" />
    <glyph glyph-name="udieresis" unicode="&#xfc;" horiz-adv-x="989" 
d="M864 0h-116l-31 139q-2 -4 -20.5 -26.5t-30 -34.5t-37 -35t-48 -34t-55 -21.5t-67.5 -10.5q-315 0 -316 369v590h133v-582q0 -84 12.5 -137t58.5 -94t130 -41t143.5 60.5t90.5 138.5v655h133v-737q0 -45 9 -110.5t11 -88.5zM715 1135h-133v149h133v-149zM406 1135h-134
v149h134v-149z" />
    <glyph glyph-name="yacute" unicode="&#xfd;" horiz-adv-x="995" 
d="M913 936l-391 -1086q-41 -113 -101.5 -174t-182.5 -104l-43 117q145 39 180 133l82 217l-375 897h143l299 -743l254 743h135zM696 1325l-241 -240h-107l197 240h151z" />
    <glyph glyph-name="thorn" unicode="&#xfe;" horiz-adv-x="1005" 
d="M909 473q0 -217 -98 -356.5t-297 -139.5q-156 0 -244 134l-28 -480h-117q18 176 18 656v1059h133v-549q37 61 113 111t160 50q186 0 273 -136t87 -349zM770 469q0 199 -66.5 292t-179.5 93q-158 0 -252 -201v-428q82 -143 230 -143q268 0 268 387z" />
    <glyph glyph-name="ydieresis" unicode="&#xff;" horiz-adv-x="995" 
d="M913 936l-391 -1086q-41 -113 -101.5 -174t-182.5 -104l-43 117q145 39 180 133l82 217l-375 897h143l299 -743l254 743h135zM735 1149h-133v149h133v-149zM426 1149h-133v149h133v-149z" />
  </font>
</defs>
</svg>
