<?xml version="1.0" standalone="no"?>
<!DOCTYPE svg PUBLIC "-//W3C//DTD SVG 1.1//EN" "http://www.w3.org/Graphics/SVG/1.1/DTD/svg11.dtd" >
<svg xmlns="http://www.w3.org/2000/svg">
<defs>
<font id="Colaborate-Regular" horiz-adv-x="1052" >
  <font-face 
    font-family="Colaborate-Regular"
    font-weight="400"
    font-stretch="normal"
    units-per-em="2048"
    panose-1="2 0 5 3 6 0 0 2 0 4"
    ascent="1638"
    descent="-410"
    x-height="936"
    cap-height="1325"
    bbox="-57 -465 1819 1710"
    underline-thickness="102"
    underline-position="-102"
    unicode-range="U+0020-U+00FF"
  />
<missing-glyph horiz-adv-x="748" 
d="M68 0v1365h544v-1365h-544zM136 68h408v1229h-408v-1229z" />
    <glyph glyph-name=".notdef" horiz-adv-x="748" 
d="M68 0v1365h544v-1365h-544zM136 68h408v1229h-408v-1229z" />
    <glyph glyph-name=".null" horiz-adv-x="0" 
 />
    <glyph glyph-name="nonmarkingreturn" horiz-adv-x="682" 
 />
    <glyph glyph-name="space" unicode=" " horiz-adv-x="526" 
 />
    <glyph glyph-name="exclam" unicode="!" horiz-adv-x="526" 
d="M354 360h-182v965h182v-965zM367 0h-205v199h205v-199z" />
    <glyph glyph-name="quotedbl" unicode="&#x22;" horiz-adv-x="778" 
d="M623 1325l-17 -444h-137l-16 444h170zM328 1325l-17 -444h-137l-16 444h170z" />
    <glyph glyph-name="numbersign" unicode="#" 
d="M1022 803h-219l-53 -297h192v-135h-215l-65 -371h-160l65 371h-196l-64 -371h-160l66 371h-184v135h207l53 297h-180v135h204l68 387h160l-68 -387h195l67 387h160l-68 -387h195v-135zM643 803h-197l-51 -297h197z" />
    <glyph glyph-name="dollar" unicode="$" 
d="M944 344q0 -326 -352 -373v-172h-150v164q-127 2 -352 62l66 174l46 -18.5t49 -18.5t43 -14.5t49 -14.5t46 -8t53 -4v485q-66 25 -104.5 42.5t-94 51t-85 70.5t-52 94.5t-22.5 128.5q0 156 99.5 243t258.5 107v185h150v-180q174 -12 295 -54l-66 -174q-131 59 -229 68
v-432q78 -31 130 -57.5t108.5 -73.5t85 -118t28.5 -163zM444 815v367q-158 -35 -157 -189q0 -63 40.5 -104t116.5 -74zM741 340q0 123 -151 201v-400q151 45 151 199z" />
    <glyph glyph-name="percent" unicode="%" horiz-adv-x="1605" 
d="M1507 340q0 -170 -61.5 -267.5t-218.5 -97.5q-156 0 -215.5 96.5t-59.5 268.5q0 352 277 352q158 0 218 -92t60 -260zM1253 1288l-743 -1288h-164l741 1288h166zM653 997q0 -172 -60.5 -269t-217.5 -97q-156 0 -215.5 97t-59.5 269q0 350 277 351q158 0 217 -91.5
t59 -259.5zM1374 340q0 131 -27.5 193.5t-117.5 62.5q-84 0 -113 -68.5t-29 -187.5q0 -68 4.5 -110t17.5 -81.5t43 -58t75 -18.5q88 0 117.5 67.5t29.5 200.5zM522 997q0 131 -27.5 192.5t-117.5 61.5q-84 0 -114 -68.5t-30 -185.5q0 -135 27 -201.5t115 -66.5t117.5 67.5
t29.5 200.5z" />
    <glyph glyph-name="ampersand" unicode="&#x26;" 
d="M958 0h-167l-29 100q-37 -55 -108.5 -93t-143.5 -38q-178 0 -297 96.5t-119 296.5q0 264 232 381q-4 4 -35 27l-44.5 33t-39 36.5t-37.5 49t-23.5 56.5t-11.5 69q0 152 85 247t265 95q168 0 259.5 -82t91.5 -246q0 -197 -332 -336q-113 -47 -167 -122.5t-54 -202.5
q0 -102 58 -179t185 -77q125 0 224 147v207h-197v131h377v-309q0 -61 14 -172t14 -115zM651 1030q0 184 -170 184q-160 0 -159 -198q0 -29 9 -54.5t27.5 -48t31.5 -37t38 -34t31 -25.5q86 37 139 86t53 127z" />
    <glyph glyph-name="quotesingle" unicode="'" horiz-adv-x="526" 
d="M348 1325l-16 -444h-137l-17 444h170z" />
    <glyph glyph-name="parenleft" unicode="(" horiz-adv-x="604" 
d="M498 -262h-166q-129 223 -173 386t-44 396q0 266 46 432t161 373h165q-109 -199 -147.5 -371t-38.5 -434q0 -229 39 -398t158 -384z" />
    <glyph glyph-name="parenright" unicode=")" horiz-adv-x="604" 
d="M494 520q0 -233 -44 -396t-174 -386h-167q119 215 157.5 384t38.5 398q0 262 -39 434t-147 371h168q115 -207 161 -373t46 -432z" />
    <glyph glyph-name="asterisk" unicode="*" horiz-adv-x="839" 
d="M817 991l-301 -73l-2 -15l197 -254l-107 -76l-170 263h-16l-174 -263l-107 78l197 252l-4 15l-305 75l41 129l292 -110l17 12l-15 305h129l-16 -311l14 -8l293 108z" />
    <glyph glyph-name="plus" unicode="+" 
d="M963 373h-355v-373h-164v373h-354v145h354v359h164v-359h355v-145z" />
    <glyph glyph-name="comma" unicode="," horiz-adv-x="526" 
d="M365 154l-166 -365h-142l105 365h203z" />
    <glyph glyph-name="hyphen" unicode="-" horiz-adv-x="692" 
d="M635 401h-578v156h578v-156z" />
    <glyph glyph-name="period" unicode="." horiz-adv-x="526" 
d="M365 0h-203v197h203v-197z" />
    <glyph glyph-name="slash" unicode="/" horiz-adv-x="567" 
d="M582 1346l-435 -1369h-161l436 1369h160z" />
    <glyph glyph-name="zero" unicode="0" 
d="M975 630.5q0 -149.5 -18.5 -260t-65.5 -206.5t-139.5 -146.5t-229.5 -50.5q-135 0 -226 50.5t-137 146.5t-63.5 205.5t-17.5 261.5q0 639 446 639q135 0 227.5 -47t139.5 -138.5t65.5 -198t18.5 -256zM770 631q0 98 -4 161.5t-17.5 131t-39 105.5t-72.5 62.5t-113 24.5
q-78 0 -129 -39t-74.5 -115.5t-30.5 -150.5t-7 -180q0 -100 3 -165t16 -137.5t39 -113.5t71 -67.5t110 -26.5q82 0 134.5 38t76 116.5t30.5 156.5t7 199z" />
    <glyph glyph-name="one" unicode="1" 
d="M735 -2h-205v1040l-235 -194l-64 153l308 246h196v-1245z" />
    <glyph glyph-name="two" unicode="2" 
d="M954 0h-807l-59 168l112 90l141 116t134 119.5t129 133t83 126t36 124.5q0 131 -58.5 186t-168.5 55q-119 0 -310 -98l-63 170q131 49 207 65.5t170 16.5q188 0 309 -91t121 -296q0 -78 -44 -169t-98.5 -161t-147.5 -158t-144.5 -130l-139.5 -111h598v-156z" />
    <glyph glyph-name="three" unicode="3" 
d="M903 336q0 -102 -40 -177t-109.5 -115t-147.5 -58.5t-168 -18.5q-213 0 -360 51l61 170q164 -68 305 -67q113 0 183.5 57.5t70.5 159.5q0 100 -53 155.5t-131 71t-207 15.5v147q188 0 274.5 40t86.5 167q0 184 -207 184q-111 0 -299 -92l-62 170q66 33 174.5 54.5
t190.5 21.5q408 0 407 -334q0 -127 -77.5 -197.5t-198.5 -85.5q129 -20 218 -96t89 -223z" />
    <glyph glyph-name="four" unicode="4" 
d="M1008 336h-197v-336h-201v336h-495l-68 160l553 747h211v-751h197v-156zM610 492v542l-399 -542h399z" />
    <glyph glyph-name="five" unicode="5" 
d="M948 395q0 -203 -132 -315.5t-341 -112.5q-229 0 -373 47l64 170q158 -63 311 -63q270 0 271 278q0 125 -57.5 185.5t-155.5 60.5q-53 0 -106.5 -15.5t-75 -26.5t-72.5 -40l-140 55v625h756v-153h-555v-326q121 39 205 39q188 0 294.5 -105.5t106.5 -302.5z" />
    <glyph glyph-name="six" unicode="6" 
d="M958 385q0 -178 -119.5 -298t-297.5 -120q-449 0 -449 613q0 174 50.5 325.5t172 259t297.5 107.5q141 0 279 -37l-64 -170q-113 53 -204 53q-168 0 -254 -134t-86 -339q41 82 120.5 130t153.5 48q199 0 300 -114.5t101 -323.5zM754 385q0 57 -7.5 100t-27 89.5t-64.5 71
t-110 24.5q-174 0 -244 -181q0 -209 60.5 -288.5t181.5 -79.5q92 0 151.5 68.5t59.5 195.5z" />
    <glyph glyph-name="seven" unicode="7" 
d="M920 1104l-453 -1104h-221l493 1087h-641v154h756z" />
    <glyph glyph-name="eight" unicode="8" 
d="M975 311q0 -344 -455 -344q-444 0 -444 344q0 264 301 344l-22 9q-22 8 -29 12t-30.5 15t-35.5 19.5l-33.5 24t-34 28.5t-29 33.5t-24.5 41t-14 47t-6 55.5q0 160 106.5 246t304.5 86q211 0 312.5 -79t101.5 -251q0 -86 -54 -154.5t-110.5 -96t-105.5 -38.5
q150 -43 225.5 -125t75.5 -217zM748 936q0 94 -51.5 139t-166.5 45q-113 0 -163 -45t-50 -139q0 -82 62.5 -135t142.5 -78q88 25 157 79t69 134zM776 315q0 186 -250 267q-115 -37 -182.5 -95.5t-67.5 -171.5q0 -92 62.5 -144t181.5 -52q123 0 189.5 51t66.5 145z" />
    <glyph glyph-name="nine" unicode="9" 
d="M961 659q0 -129 -31 -247.5t-91.5 -220t-164 -163t-236.5 -61.5q-139 0 -276 37l63 170q113 -53 203 -53q168 0 255 134t87 339q-41 -82 -121 -130t-153 -48q-199 0 -301.5 113.5t-102.5 322.5q0 178 122 299t296 121q135 0 228 -51.5t139.5 -143.5t65 -191.5
t18.5 -226.5zM752 750q0 209 -61.5 288.5t-182.5 79.5q-92 0 -150.5 -69.5t-58.5 -196.5q0 -57 7 -100t26.5 -88.5t63.5 -70t110 -24.5q176 1 246 181z" />
    <glyph glyph-name="colon" unicode=":" horiz-adv-x="526" 
d="M365 729h-203v197h203v-197zM365 0h-203v197h203v-197z" />
    <glyph glyph-name="semicolon" unicode=";" horiz-adv-x="526" 
d="M362 729h-202v197h202v-197zM365 154l-166 -365h-142l103 365h205z" />
    <glyph glyph-name="less" unicode="&#x3c;" 
d="M971 59l-889 322v205l889 325v-182l-705 -246l705 -241v-183z" />
    <glyph glyph-name="equal" unicode="=" 
d="M971 524h-889v148h889v-148zM971 170h-889v147h889v-147z" />
    <glyph glyph-name="greater" unicode="&#x3e;" 
d="M971 385l-889 -326v183l704 245l-704 242v182l889 -323v-203z" />
    <glyph glyph-name="question" unicode="?" horiz-adv-x="890" 
d="M827 1018q0 -68 -34.5 -124t-84 -97l-97.5 -80t-82.5 -88t-34.5 -105v-176h-185v187q0 78 33 139t81 100l95 74t80 78t33 92q0 92 -44 131t-149 39q-57 0 -149 -22.5t-148 -49.5l-37 168q176 61 334 62q78 0 138.5 -12.5t122 -44.5t95 -100.5t33.5 -170.5zM504 0h-205
v199h205v-199z" />
    <glyph glyph-name="at" unicode="@" horiz-adv-x="1781" 
d="M1616 780q0 -141 -51.5 -245.5t-142.5 -163t-200.5 -86t-240.5 -27.5q-215 0 -336 103.5t-121 295.5q0 170 106.5 281t307.5 111q109 0 201 -29v-354l55 4l53 -138l-274 -28v393q-16 10 -47 10q-94 0 -156.5 -57t-62.5 -191q0 -80 26.5 -135t71.5 -81.5t88 -38t92 -11.5
q215 0 331 83t116 302q0 119 -41 206t-112 134t-151.5 68.5t-173.5 21.5q-80 0 -157.5 -14t-160.5 -53t-144.5 -99.5t-101.5 -160t-40 -226.5q0 -129 40 -229t102.5 -159.5t146.5 -97.5t161 -51.5t158 -13.5q197 0 435 70l63 -151q-221 -59 -504 -60q-358 0 -572 178
t-214 514q0 338 221 516.5t567 178.5q115 0 226.5 -32t212 -96.5t162 -179.5t61.5 -262z" />
    <glyph glyph-name="A" unicode="A" horiz-adv-x="1345" 
d="M1282 0h-225l-131 375h-508l-139 -375h-216l539 1325h180zM874 528l-192 559l-207 -559h399z" />
    <glyph glyph-name="B" unicode="B" horiz-adv-x="1234" 
d="M1120 381q0 -381 -440 -381h-483v1325h415q211 0 329 -79t118 -277q0 -100 -58.5 -172t-152.5 -103q127 -23 199.5 -101.5t72.5 -211.5zM850 966.5q0 102.5 -55.5 151.5t-182.5 49h-211v-407h240q92 0 150.5 52t58.5 154.5zM909 381q0 223 -264 223h-244v-446h267
q115 0 178 48t63 175z" />
    <glyph glyph-name="C" unicode="C" horiz-adv-x="1144" 
d="M1067 25q-174 -61 -360 -62q-582 0 -582 699q0 145 29.5 263.5t96 217t184.5 153t282 54.5q178 0 336 -52l-66 -174q-158 68 -270 68q-381 0 -381 -528q0 -262 85 -402.5t284 -140.5q104 0 296 78z" />
    <glyph glyph-name="D" unicode="D" horiz-adv-x="1333" 
d="M1208 668q0 -358 -148.5 -513t-484.5 -155h-378v1325h378q336 0 484.5 -150.5t148.5 -506.5zM997 666q0 154 -26.5 254t-84 153t-130 73.5t-181.5 20.5h-174v-1009h193q203 0 303 114.5t100 393.5z" />
    <glyph glyph-name="E" unicode="E" horiz-adv-x="1144" 
d="M975 0h-778v1325h759v-158h-555v-403h512v-158h-512v-448h574v-158z" />
    <glyph glyph-name="F" unicode="F" horiz-adv-x="1067" 
d="M956 1165h-555v-409h531v-156h-531v-600h-204v1325h759v-160z" />
    <glyph glyph-name="G" unicode="G" horiz-adv-x="1259" 
d="M1135 80q-113 -61 -205 -89t-221 -28q-584 0 -584 701q0 322 146.5 504t455.5 182q123 0 320 -52l-66 -174q-156 68 -252 68q-195 0 -294 -124t-99 -404q0 -262 83 -402.5t296 -140.5q121 0 237 65v338h-293v158h476v-602z" />
    <glyph glyph-name="H" unicode="H" horiz-adv-x="1372" 
d="M1176 0h-205v604h-570v-604h-204v1325h204v-561h570v561h205v-1325z" />
    <glyph glyph-name="I" unicode="I" horiz-adv-x="548" 
d="M377 0h-205v1325h205v-1325z" />
    <glyph glyph-name="J" unicode="J" horiz-adv-x="862" 
d="M666 418q0 -80 -13.5 -147.5t-42 -120t-59.5 -93.5t-79 -73.5t-87 -54t-98.5 -42t-96 -31l-96.5 -26.5q-6 -2 -8 -2l-53 172q14 2 56 10t60.5 12.5t56.5 14.5t57.5 19.5l51 25.5t49 35.5t39 47.5t31.5 60.5t18.5 76.5t8.5 95v928h205v-907z" />
    <glyph glyph-name="K" unicode="K" horiz-adv-x="1277" 
d="M1247 0h-266l-580 623v-623h-204v1325h204v-582l537 582h229l-577 -625z" />
    <glyph glyph-name="L" unicode="L" horiz-adv-x="993" 
d="M979 0h-782v1325h204v-1161h578v-164z" />
    <glyph glyph-name="M" unicode="M" horiz-adv-x="1804" 
d="M1608 0h-199v1108l-412 -1108h-194l-414 1108v-1108h-192v1325h325l385 -1046l391 1046h310v-1325z" />
    <glyph glyph-name="N" unicode="N" horiz-adv-x="1435" 
d="M1239 0h-303l-547 1083v-1083h-192v1325h299l542 -1083v1083h201v-1325z" />
    <glyph glyph-name="O" unicode="O" horiz-adv-x="1439" 
d="M1315 657q0 -319 -140.5 -506.5t-451.5 -187.5q-598 0 -598 694q0 317 143.5 505t456.5 188q590 -1 590 -693zM1104 657q0 270 -89 402.5t-292 132.5q-205 0 -296 -132t-91 -403q0 -274 90 -405t297 -131t294 136t87 400z" />
    <glyph glyph-name="P" unicode="P" horiz-adv-x="1183" 
d="M1077 938q0 -399 -434 -399h-242v-539h-204v1325h424q456 0 456 -387zM868 938q0 135 -64.5 182t-187.5 47h-215v-471h226q119 0 180 54.5t61 187.5z" />
    <glyph glyph-name="Q" unicode="Q" horiz-adv-x="1439" 
d="M1315 657q0 -319 -140.5 -506.5t-451.5 -187.5q-598 0 -598 694q0 317 142.5 505t457.5 188q590 -1 590 -693zM1176 -125l-72 -143l-449 67l72 117zM1104 657q0 270 -89 402.5t-292 132.5q-205 0 -296 -132t-91 -403q0 -274 90 -405t297 -131t294 136t87 400z" />
    <glyph glyph-name="R" unicode="R" horiz-adv-x="1257" 
d="M1167 0h-247l-422 571h-97v-571h-204v1325h454q86 0 159 -17.5t138.5 -56.5t102 -113.5t36.5 -181.5q0 -154 -82.5 -257t-269.5 -121zM879 956q0 100 -55.5 155.5t-161.5 55.5h-261v-438h263q111 0 163 61.5t52 165.5z" />
    <glyph glyph-name="S" unicode="S" horiz-adv-x="1171" 
d="M1036 344q0 -381 -524 -381q-152 0 -377 62l66 174q207 -78 313 -78q313 0 313 219q0 43 -19.5 80t-41 58.5t-72.5 48t-78.5 37.5t-95.5 36q-72 27 -112.5 44.5t-100 52t-91.5 71.5t-56.5 95.5t-24.5 129.5q0 123 70.5 206t174 117t232.5 34q178 0 342 -56l-65 -174
q-4 2 -27.5 12.5t-31 13.5t-30 11t-32.5 11l-32.5 9.5t-39 8.5t-40 4t-46.5 2q-266 0 -266 -199q0 -55 40 -97t84 -62.5t132 -51.5q205 -73 282 -128q154 -111 154 -310z" />
    <glyph glyph-name="T" unicode="T" horiz-adv-x="1058" 
d="M1010 1165h-379v-1165h-203v1165h-379v160h961v-160z" />
    <glyph glyph-name="U" unicode="U" horiz-adv-x="1435" 
d="M1239 485q0 -522 -508 -522q-276 0 -405 129t-129 397v836h204v-815q0 -225 81 -307t249 -82q152 0 227.5 90t75.5 299v815h205v-840z" />
    <glyph glyph-name="V" unicode="V" horiz-adv-x="1286" 
d="M1227 1325l-482 -1325h-186l-500 1325h226l372 -1065l355 1065h215z" />
    <glyph glyph-name="W" unicode="W" horiz-adv-x="1890" 
d="M1819 1325l-346 -1325h-248l-277 989l-311 -989h-248l-317 1325h215l252 -1069l301 1014h245l269 -1016l268 1071h197z" />
    <glyph glyph-name="X" unicode="X" horiz-adv-x="1239" 
d="M1163 0h-243l-306 524l-331 -524h-220l443 684l-389 641h235l275 -463l291 463h219l-408 -629z" />
    <glyph glyph-name="Y" unicode="Y" horiz-adv-x="1208" 
d="M1178 1325l-467 -729v-596h-205v588l-475 737h231l354 -553l345 553h217z" />
    <glyph glyph-name="Z" unicode="Z" horiz-adv-x="1126" 
d="M1036 1157l-725 -997h709v-160h-873l-57 168l725 997h-649v160h813z" />
    <glyph glyph-name="bracketleft" unicode="[" horiz-adv-x="591" 
d="M496 -260h-326v1644h326v-133h-162v-1372h162v-139z" />
    <glyph glyph-name="backslash" unicode="\" horiz-adv-x="567" 
d="M582 -23h-162l-434 1369h159z" />
    <glyph glyph-name="bracketright" unicode="]" horiz-adv-x="591" 
d="M434 -258h-325v137h161v1374h-161v133h325v-1644z" />
    <glyph glyph-name="asciicircum" unicode="^" 
d="M985 551h-178l-283 604l-282 -604h-172l370 774h166z" />
    <glyph glyph-name="underscore" unicode="_" horiz-adv-x="1024" 
d="M1026 -223h-1028v139h1028v-139z" />
    <glyph glyph-name="grave" unicode="`" horiz-adv-x="466" 
d="M428 1085h-135l-254 240h192z" />
    <glyph glyph-name="a" unicode="a" horiz-adv-x="1026" 
d="M901 0h-170q0 4 -16.5 51t-16.5 51q-109 -127 -254 -127q-164 0 -258 69t-94 202q0 158 113.5 245t394.5 87h84v59q0 182 -160 182q-158 0 -329 -82l-64 152q195 72 399 72q156 0 247 -76t91 -223v-375q0 -33 5.5 -78t14.5 -107.5t13 -101.5zM686 227v224h-57
q-188 0 -266 -47.5t-78 -149.5q0 -68 51 -102.5t137 -34.5q145 -1 213 110z" />
    <glyph glyph-name="b" unicode="b" horiz-adv-x="1046" 
d="M954 473q0 -215 -104.5 -356.5t-302.5 -141.5q-78 0 -138.5 38t-93.5 89l-32 -102h-166q23 176 22 287v1059h183v-541q106 156 251 156q197 0 289 -136.5t92 -351.5zM766 469q0 350 -217 350q-59 0 -109.5 -35.5t-73 -69.5t-49.5 -85v-375q29 -63 84.5 -100t120.5 -37
q244 0 244 352z" />
    <glyph glyph-name="c" unicode="c" horiz-adv-x="923" 
d="M850 39q-51 -25 -155.5 -44.5t-164.5 -19.5q-215 0 -326.5 131.5t-111.5 354.5q0 236 110.5 368t334.5 132q59 0 155 -20.5t152 -43.5l-64 -152q-147 74 -245 74q-135 0 -194.5 -88t-59.5 -270q0 -344 251 -344q111 0 254 73z" />
    <glyph glyph-name="d" unicode="d" horiz-adv-x="1046" 
d="M930 0h-166l-33 102q-35 -53 -96.5 -90t-134.5 -37q-209 0 -308.5 139.5t-99.5 358.5q0 209 99.5 348.5t285.5 139.5q141 0 248 -156v541h182v-1059q0 -111 23 -287zM729 254v375q-94 190 -229 190q-219 0 -219 -350q0 -184 59 -268t184 -84q119 0 205 137z" />
    <glyph glyph-name="e" unicode="e" horiz-adv-x="1026" 
d="M930 397h-643q20 -285 248 -284q125 0 284 80l60 -144q-160 -74 -361 -74q-209 0 -317.5 137.5t-108.5 346.5q0 90 19.5 172t64.5 159.5t130 124t202 46.5q238 0 330 -139.5t92 -424.5zM752 535q-8 285 -242 284q-90 0 -153.5 -70.5t-71.5 -213.5h467z" />
    <glyph glyph-name="f" unicode="f" horiz-adv-x="632" 
d="M633 1229q-283 -31 -283 -215v-78h213v-141h-213v-795h-182v795h-141v141h141v63q0 94 41 169t106.5 118t134 67.5t136.5 28.5z" />
    <glyph glyph-name="g" unicode="g" horiz-adv-x="1067" 
d="M1004 963l-52 -129h-123q39 -33 71 -94.5t32 -129.5q0 -147 -95.5 -251.5t-308.5 -104.5q-37 0 -104.5 11t-95.5 28q-47 -43 -47 -80q0 -39 55 -59.5t225 -32.5q254 -20 345 -83t91 -179q0 -137 -131 -203t-325 -66q-250 0 -356.5 68t-106.5 195q0 125 174 184
q-127 55 -127 168q0 74 100 157q-100 123 -100 248q0 39 8 79t35 91t67.5 89t115.5 65t173 27q82 0 158 -21q232 19 322 23zM741 614q0 207 -213 207q-98 0 -155.5 -55t-57.5 -159.5t56.5 -160t158.5 -55.5q111 0 161 64.5t50 158.5zM807 -141q0 106 -430 125
q-49 -16 -79 -52t-30 -73q0 -61 75 -98t198 -37q143 0 204.5 33.5t61.5 101.5z" />
    <glyph glyph-name="h" unicode="h" horiz-adv-x="1042" 
d="M903 0h-182v588q0 113 -35 172t-141 59q-139 0 -223 -186v-633h-183v1346h183v-541q37 59 101 108.5t150 49.5q182 0 256 -98.5t74 -268.5v-596z" />
    <glyph glyph-name="i" unicode="i" horiz-adv-x="466" 
d="M332 1145h-197v180h197v-180zM326 0h-185v936h185v-936z" />
    <glyph glyph-name="j" unicode="j" horiz-adv-x="458" 
d="M324 1145h-199v180h199v-180zM315 12q0 -279 -311 -377l-61 154q106 23 148 68t42 137v942h182v-924z" />
    <glyph glyph-name="k" unicode="k" horiz-adv-x="950" 
d="M922 0h-213l-387 479v-479h-183v1346h183v-787l352 377h198l-380 -406z" />
    <glyph glyph-name="l" unicode="l" horiz-adv-x="460" 
d="M322 0h-183v1346h183v-1346z" />
    <glyph glyph-name="m" unicode="m" horiz-adv-x="1617" 
d="M1479 0h-183v594q0 113 -37.5 169t-132.5 56q-80 0 -141 -58.5t-90 -137.5v-623h-182v594q0 121 -42 173t-132 52q-70 0 -130.5 -59.5t-86.5 -124.5v-635h-183v721q0 45 -10 122l-12 93h166l34 -133q39 57 107 108.5t145 51.5q117 0 180.5 -41t114.5 -129q45 72 119 121
t168 49q328 0 328 -365v-598z" />
    <glyph glyph-name="n" unicode="n" horiz-adv-x="1042" 
d="M903 0h-182v592q0 109 -34 168t-142 59q-74 0 -131.5 -55t-91.5 -131v-633h-183v737q0 45 -10 111.5t-12 87.5h166l32 -131l18 21q17 22 25.5 30l29 28.5t37.5 31t40.5 22.5t50.5 18.5t55 6.5q184 0 258 -97.5t74 -275.5v-590z" />
    <glyph glyph-name="o" unicode="o" horiz-adv-x="1058" 
d="M967 473q0 -223 -104.5 -361.5t-332.5 -138.5q-229 0 -333.5 138.5t-104.5 361.5q0 213 105.5 351.5t332.5 138.5q229 0 333 -134.5t104 -355.5zM778 473q0 176 -57 261t-191 85q-250 0 -249 -346q0 -356 249 -356q248 0 248 356z" />
    <glyph glyph-name="p" unicode="p" horiz-adv-x="1046" 
d="M954 463q0 -211 -96 -350.5t-285 -139.5q-76 0 -144.5 36t-106.5 91v-469h-183v1022q0 115 -22 283h166l36 -131q106 158 242 158q139 0 230.5 -72t127 -179.5t35.5 -248.5zM766 467q0 182 -58.5 267t-183.5 85q-68 0 -121 -53t-84 -131v-381q86 -137 228 -137
q219 0 219 350z" />
    <glyph glyph-name="q" unicode="q" horiz-adv-x="1046" 
d="M930 936q-23 -168 -23 -283v-1022h-182v469q-41 -55 -107.5 -91t-142.5 -36q-197 0 -290 138.5t-93 351.5q0 217 98.5 358.5t294.5 141.5q135 0 242 -158l37 131h166zM729 254v381q-31 76 -86 130t-123 54q-240 0 -239 -352q0 -350 219 -350q143 0 229 137z" />
    <glyph glyph-name="r" unicode="r" horiz-adv-x="737" 
d="M711 915l-66 -153q-88 57 -141 57q-33 0 -60.5 -16.5t-47 -48t-32 -55t-26.5 -62.5t-16 -43v-594h-183v727q0 37 -22 209h166l32 -164q37 70 94.5 130.5t127.5 60.5q96 -1 174 -48z" />
    <glyph glyph-name="s" unicode="s" horiz-adv-x="886" 
d="M795 254q0 -143 -106.5 -212t-264.5 -69q-184 0 -342 64l63 151q153 -61 223 -68q29 -3 60 -3q98 0 138 34.5t40 100.5q0 31 -14 52.5t-52 41t-60.5 27.5t-84.5 28q-70 23 -109.5 39.5t-91 50t-76 83t-24.5 116.5q0 100 58.5 164t137.5 86.5t179 22.5q127 0 311 -62
l-65 -153q-63 29 -88 39t-70 21t-92 11q-182 0 -182 -123q0 -33 27.5 -57.5t57 -36.5t91.5 -33q171 -54 231 -98q105 -77 105 -217z" />
    <glyph glyph-name="t" unicode="t" horiz-adv-x="638" 
d="M614 0l-63 -166q-168 41 -270.5 143.5t-102.5 253.5v564h-151v143h151v244h184v-244h218v-143h-218v-568q0 -176 252 -227z" />
    <glyph glyph-name="u" unicode="u" horiz-adv-x="1028" 
d="M911 0h-166l-32 131q-2 -4 -20.5 -26.5t-30 -35t-35 -33t-45 -32.5t-53 -21.5t-64.5 -9.5q-326 0 -326 373v590h183v-592q0 -70 9 -114t49 -78.5t112 -34.5q131 0 215 186v633h182v-737q0 -45 10 -112t12 -87z" />
    <glyph glyph-name="v" unicode="v" horiz-adv-x="1050" 
d="M973 936l-361 -936h-172l-362 936h196l258 -713l252 713h189z" />
    <glyph glyph-name="w" unicode="w" horiz-adv-x="1544" 
d="M1475 936l-314 -936h-186l-199 616l-215 -616h-190l-301 936h194l219 -711l213 625h176l201 -623l217 709h185z" />
    <glyph glyph-name="x" unicode="x" horiz-adv-x="966" 
d="M918 0h-211l-226 346l-237 -346h-195l338 473l-315 463h211l209 -326l217 326h192l-317 -449z" />
    <glyph glyph-name="y" unicode="y" horiz-adv-x="1040" 
d="M963 936l-392 -1086q-43 -121 -115.5 -194.5t-205.5 -120.5l-60 154q145 39 181 133l82 217l-375 897h196l269 -686l231 686h189z" />
    <glyph glyph-name="z" unicode="z" horiz-adv-x="874" 
d="M811 784l-539 -643h510v-141h-655l-64 152l541 643h-483v141h624z" />
    <glyph glyph-name="braceleft" unicode="{" horiz-adv-x="765" 
d="M633 -242q-102 2 -175 34t-107 81t-55.5 111.5t-25.5 127t-13 128t-21.5 112.5t-46 82t-91.5 37v145q72 2 108 54.5t40 130.5t18.5 168t40 166.5t108.5 131t220 58.5v-145q-100 0 -148.5 -53.5t-57.5 -136.5t-14 -169t-40 -166t-111 -114q66 -25 102.5 -83.5t43 -128
t14.5 -146.5t20.5 -138t59.5 -101t131 -40v-146z" />
    <glyph glyph-name="bar" unicode="|" horiz-adv-x="526" 
d="M342 -340h-158v1778h158v-1778z" />
    <glyph glyph-name="braceright" unicode="}" horiz-adv-x="765" 
d="M668 471q-57 -4 -91 -37t-46.5 -82t-21.5 -112.5t-13 -128t-25.5 -127t-56.5 -111.5t-108 -81t-175 -34v146q98 0 146.5 55t57.5 139t14 172t41 165t114 106q-76 35 -111 114.5t-40 165.5t-15 169t-58.5 136.5t-148.5 53.5v145q104 -4 178 -36t109 -81t57.5 -112.5
t26.5 -128t13 -127t19.5 -111.5t44 -80t89.5 -33v-145z" />
    <glyph glyph-name="asciitilde" unicode="~" 
d="M995 537q0 -102 -71.5 -169t-190.5 -67q-76 0 -154.5 44t-141 87t-95.5 43q-70 0 -103.5 -34.5t-33.5 -118.5l-150 77q0 104 70 170t188 66q78 0 160 -43t143.5 -85t90.5 -42q70 0 105.5 35t35.5 116z" />
    <glyph glyph-name="uni00A0" unicode="&#xa0;" horiz-adv-x="526" 
 />
    <glyph glyph-name="exclamdown" unicode="&#xa1;" horiz-adv-x="526" 
d="M367 1126h-205v199h205v-199zM354 0h-182v965h182v-965z" />
    <glyph glyph-name="cent" unicode="&#xa2;" horiz-adv-x="903" 
d="M829 39q-74 -37 -229 -57v-187h-151v187q-176 25 -266.5 151.5t-90.5 327.5q0 211 88 340t269 153v191h151v-191q111 -14 223 -57l-63 -152q-92 45 -160 62v-680q78 18 166 63zM449 133v674q-168 -45 -168 -346q0 -279 168 -328z" />
    <glyph glyph-name="sterling" unicode="&#xa3;" 
d="M1006 0h-897v164h135v481h-150v146h150v32q0 127 35.5 223.5t87 151.5t135.5 94t152.5 54.5t166.5 29.5l56 -172q-192 -18 -259 -47q-169 -72 -169 -328v-38h331v-146h-331v-481h557v-164z" />
    <glyph glyph-name="currency" unicode="&#xa4;" 
d="M1100 1296l-53 -172q-150 68 -285 68q-147 0 -225 -79t-109 -226h549l-49 -158h-520v-117h487l-49 -157h-424q25 -162 101.5 -248t226.5 -86q23 0 44 2t45.5 8t40 9t45 14.5l40 15.5t46.5 19.5t44 17.5v-195q-147 -49 -303 -49q-467 0 -541 492h-213l49 157h150v50
q0 6 -1 22t-1 23q0 4 1 11t1 11h-199l49 158h170q86 463 545 463q174 -1 338 -54z" />
    <glyph glyph-name="yen" unicode="&#xa5;" 
d="M1047 1325l-383 -672h245v-143h-278v-125h278v-145h-278v-240h-205v240h-276v145h276v125h-276v143h241l-385 672h227l304 -553l297 553h213z" />
    <glyph glyph-name="brokenbar" unicode="&#xa6;" horiz-adv-x="526" 
d="M344 735h-162v479h162v-479zM344 -160h-162v479h162v-479z" />
    <glyph glyph-name="section" unicode="&#xa7;" horiz-adv-x="929" 
d="M834 645q0 -141 -119 -207q80 -66 80 -190q0 -143 -107.5 -212t-265.5 -69q-150 0 -313 64l63 153q16 -6 48 -20l49.5 -21.5t44 -16.5t54 -12t58.5 -3q98 0 138 34.5t40 100.5q0 53 -52 87t-127 54.5t-149.5 48t-127 89t-52.5 155.5q0 156 127 217q-94 70 -94 180
q0 145 107.5 209t265.5 64q115 0 284 -62l-63 -151l-34 17t-36 17.5l-30.5 12.5t-38 13t-36 6t-44.5 3q-184 0 -185 -123q0 -47 53.5 -77.5t129.5 -51t150.5 -50.5t128 -95.5t53.5 -163.5zM645 643q0 18 -4 32.5t-13.5 28t-18.5 22.5t-26.5 19.5t-29.5 16.5t-36.5 14
t-39 13.5t-43 14.5t-43.5 13q-106 -25 -106 -133q0 -27 14 -47.5t47 -36.5t60.5 -26.5t79 -26t75.5 -23.5q84 35 84 119z" />
    <glyph glyph-name="dieresis" unicode="&#xa8;" horiz-adv-x="466" 
d="M477 1155h-172v170h172v-170zM160 1155h-172v170h172v-170z" />
    <glyph glyph-name="copyright" unicode="&#xa9;" horiz-adv-x="1474" 
d="M1423 664q0 -289 -198.5 -486.5t-487 -197.5t-487.5 197.5t-199 486t199 486.5t487 198q293 0 489.5 -196.5t196.5 -487.5zM1303 664q0 238 -164 406.5t-402 168.5q-240 0 -402.5 -168t-162.5 -407q0 -236 166 -406t399.5 -170t399.5 170t166 406zM956 279
q-109 -37 -221 -37q-358 0 -358 417q0 184 86 298t278 114q115 0 207 -31l-41 -108q-96 41 -166 41q-233 0 -233 -311q0 -322 225 -322q68 0 185 47z" />
    <glyph glyph-name="ordfeminine" unicode="&#xaa;" 
d="M776 801h-112q0 2 -10.5 27.5t-10.5 29.5q-68 -72 -151 -72q-98 0 -155.5 38t-57.5 112q0 188 307 188h49v27q0 45 -20.5 67.5t-75.5 22.5q-104 0 -199 -43l-37 92q111 39 240 39q94 0 153.5 -42t59.5 -122v-207q0 -7 20 -157zM635 942v98h-33q-113 0 -157 -22.5
t-44 -77.5q0 -66 107 -66q80 0 127 68z" />
    <glyph glyph-name="guillemotleft" unicode="&#xab;" horiz-adv-x="792" 
d="M739 926l-198 -369l196 -369h-172l-190 365l190 373h174zM420 926l-199 -369l197 -369h-170l-191 365l191 373h172z" />
    <glyph glyph-name="logicalnot" unicode="&#xac;" 
d="M991 201h-164v360h-776v146h940v-506z" />
    <glyph glyph-name="registered" unicode="&#xae;" horiz-adv-x="1474" 
d="M1423 664q0 -289 -198.5 -486.5t-487 -197.5t-487.5 197.5t-199 486t199 486.5t487 198q293 0 489.5 -196.5t196.5 -487.5zM1303 664q0 238 -164 406.5t-402 168.5q-240 0 -402.5 -168t-162.5 -407q0 -236 166 -406t399.5 -170t399.5 170t166 406zM1063 264h-154
l-262 342h-53v-342h-127v799h278q113 0 191 -52.5t78 -172.5q0 -205 -217 -228zM885 838q0 123 -133 123h-158v-256h160q131 0 131 133z" />
    <glyph glyph-name="macron" unicode="&#xaf;" horiz-adv-x="466" 
d="M485 1137h-503v145h503v-145z" />
    <glyph glyph-name="degree" unicode="&#xb0;" horiz-adv-x="839" 
d="M745 938q0 -135 -96 -225t-231 -90t-228.5 89t-93.5 226t95.5 229.5t228.5 92.5t229 -92.5t96 -229.5zM612 938q0 86 -54 142.5t-138 56.5t-139.5 -56.5t-55.5 -142.5q0 -80 57.5 -135t135.5 -55t136 56t58 134z" />
    <glyph glyph-name="plusminus" unicode="&#xb1;" 
d="M963 496h-355v-250h-164v250h-354v145h354v236h164v-236h355v-145zM971 2h-889v145h889v-145z" />
    <glyph glyph-name="uni00B2" unicode="&#xb2;" horiz-adv-x="714" 
d="M621 651h-492l-37 99q20 16 83 60t106 78t94 79t78.5 87t27.5 79q0 70 -35.5 95t-105.5 25q-76 0 -188 -53l-37 105q131 45 227 45q115 0 194.5 -51.5t79.5 -163.5q0 -31 -12 -64t-38.5 -65.5t-50 -58t-66.5 -60.5t-65 -51.5t-69 -49t-55 -38.5h361v-97z" />
    <glyph glyph-name="uni00B3" unicode="&#xb3;" horiz-adv-x="714" 
d="M612 834q0 -106 -87 -153.5t-208 -47.5q-133 0 -217 26l39 105q90 -37 183 -37q68 0 111.5 27.5t43.5 81.5q0 76 -59.5 101.5t-177.5 25.5v92q113 0 166 21.5t53 86.5q0 53 -33 71.5t-94 18.5q-63 0 -178 -51l-39 107q88 41 219 41q121 0 190.5 -47.5t69.5 -137.5
q0 -70 -48 -108.5t-120 -46.5q78 -10 132 -52t54 -124z" />
    <glyph glyph-name="acute" unicode="&#xb4;" horiz-adv-x="466" 
d="M428 1325l-256 -240h-133l197 240h192z" />
    <glyph glyph-name="mu" unicode="&#xb5;" 
d="M924 0h-166l-33 131q-2 -4 -20.5 -26.5l-29.5 -35t-35 -33t-45.5 -32.5t-53 -21.5t-64.5 -9.5q-88 0 -143 45v-387h-182v1305h182v-592q0 -70 9 -114t49 -78.5t112 -34.5q121 0 215 207v612h182v-737q0 -45 10.5 -112t12.5 -87z" />
    <glyph glyph-name="paragraph" unicode="&#xb6;" horiz-adv-x="1105" 
d="M1024 -385h-164v1565h-205q-98 0 -160.5 -62.5t-62.5 -179.5q0 -88 61.5 -153.5t139.5 -86.5v-1083h-162v967q-94 10 -164.5 48t-108.5 92t-56.5 111.5t-18.5 118.5q0 63 14.5 119.5t52 118t119.5 98.5t199 37h516v-1710z" />
    <glyph glyph-name="periodcentered" unicode="&#xb7;" horiz-adv-x="526" 
d="M362 467h-198v203h198v-203z" />
    <glyph glyph-name="cedilla" unicode="&#xb8;" horiz-adv-x="466" 
d="M444 -199q0 -98 -69.5 -153.5t-171.5 -55.5q-80 0 -199 17l41 133q131 -16 148 -16q98 0 98 71q0 39 -31 55.5t-133 16.5l43 162h149l-20 -86q70 0 107.5 -45.5t37.5 -98.5z" />
    <glyph glyph-name="uni00B9" unicode="&#xb9;" horiz-adv-x="714" 
d="M467 641h-133v561l-135 -106l-37 94l182 135h123v-684z" />
    <glyph glyph-name="ordmasculine" unicode="&#xba;" 
d="M795 1081.5q0 -120.5 -64.5 -197.5t-202 -77t-203 77t-65.5 197q0 117 65.5 193t202.5 76q139 0 203 -74t64 -194.5zM672 1081q0 94 -34 137.5t-110 43.5q-147 0 -147 -181q0 -188 147 -188q144 0 144 188z" />
    <glyph glyph-name="guillemotright" unicode="&#xbb;" horiz-adv-x="792" 
d="M737 553l-190 -365h-172l196 369l-198 369h174zM418 553l-191 -365h-170l197 369l-199 369h172z" />
    <glyph glyph-name="onequarter" unicode="&#xbc;" horiz-adv-x="1605" 
d="M1393 180h-109v-180h-133v180h-295l-43 96l332 408h139v-408h109v-96zM1169 1288l-745 -1288h-162l744 1288h163zM438 641h-135v561l-133 -106l-39 94l184 135h109zM1151 276v281l-227 -281h227z" />
    <glyph glyph-name="onehalf" unicode="&#xbd;" horiz-adv-x="1605" 
d="M1460 0h-491l-37 102q20 16 81.5 59.5l106.5 78t95.5 78.5t78 86t27.5 79q0 70 -36 94.5t-105 24.5q-74 0 -187 -53l-37 104q131 45 226 45q117 0 195.5 -50t78.5 -163q0 -31 -11 -63.5t-39 -66l-50.5 -58.5t-66.5 -59.5l-63.5 -50t-68.5 -50.5t-55 -39h358v-98z
M1163 1288l-743 -1288h-164l741 1288h166zM432 641h-133v561l-135 -106l-37 94l182 135h123v-684z" />
    <glyph glyph-name="threequarters" unicode="&#xbe;" horiz-adv-x="1605" 
d="M1436 180h-109v-180h-133v180h-295l-43 96l332 408h139v-408h109v-96zM1233 1288l-744 -1288h-163l741 1288h166zM608 834q0 -109 -87 -155t-206 -46q-133 0 -217 26l37 105q90 -37 184 -37q68 0 112 27.5t44 81.5q0 76 -60.5 101.5t-178.5 25.5v92q113 0 167 21.5
t54 86.5q0 53 -33 71.5t-96.5 18.5t-177.5 -51l-37 107q88 41 219 41q121 0 189.5 -46.5t68.5 -138.5q0 -70 -47 -108.5t-119 -46.5q78 -10 131 -52t53 -124zM1194 276v281l-227 -281h227z" />
    <glyph glyph-name="questiondown" unicode="&#xbf;" horiz-adv-x="890" 
d="M633 1126h-205v199h205v-199zM827 41q-176 -61 -333 -61q-78 0 -138.5 12t-122 44t-95.5 100.5t-34 170.5q0 68 35 124t83 97l97.5 80t84 88t34.5 105v176h187v-186q0 -78 -34 -139.5t-81 -100.5t-94 -74t-81 -78t-34 -92q0 -92 44 -131t149 -39q57 0 149 22.5t148 49.5z
" />
    <glyph glyph-name="Agrave" unicode="&#xc0;" horiz-adv-x="1345" 
d="M1282 0h-225l-131 375h-508l-139 -375h-216l539 1325h180zM874 528l-192 559l-207 -559h399zM887 1409h-135l-254 240h184z" />
    <glyph glyph-name="Aacute" unicode="&#xc1;" horiz-adv-x="1345" 
d="M1282 0h-225l-131 375h-508l-139 -375h-216l539 1325h180zM874 528l-192 559l-207 -559h399zM887 1647l-256 -240h-133l196 240h193z" />
    <glyph glyph-name="Acircumflex" unicode="&#xc2;" horiz-adv-x="1345" 
d="M1282 0h-225l-131 375h-508l-139 -375h-216l539 1325h180zM874 528l-192 559l-207 -559h399zM946 1425h-141l-117 140l-123 -140h-139l192 234h140z" />
    <glyph glyph-name="Atilde" unicode="&#xc3;" horiz-adv-x="1345" 
d="M1282 0h-225l-131 375h-508l-139 -375h-216l539 1325h180zM874 528l-192 559l-207 -559h399zM997 1548q-23 -68 -77 -109.5t-123 -41.5q-49 0 -110.5 43t-90.5 43q-76 0 -100 -84l-105 49q37 82 82 112.5t125 30.5q43 0 104.5 -42t90.5 -42q37 0 62.5 28t35.5 60z" />
    <glyph glyph-name="Adieresis" unicode="&#xc4;" horiz-adv-x="1345" 
d="M1282 0h-225l-131 375h-508l-139 -375h-216l539 1325h180zM874 528l-192 559l-207 -559h399zM932 1399h-172v170h172v-170zM614 1399h-172v170h172v-170z" />
    <glyph glyph-name="Aring" unicode="&#xc5;" horiz-adv-x="1345" 
d="M1282 0h-225l-131 375h-508l-139 -375h-216l539 1325h180zM874 528l-192 559l-207 -559h399zM868 1542q0 -70 -49 -119t-121 -49q-70 0 -120 49.5t-50 119t49.5 118.5t121 49t120.5 -48t49 -120zM788 1544q0 39 -24.5 65.5t-65.5 26.5t-66.5 -27.5t-25.5 -64.5
q0 -35 26.5 -63.5t65.5 -28.5q43 0 66.5 26.5t23.5 65.5z" />
    <glyph glyph-name="AE" unicode="&#xc6;" horiz-adv-x="1933" 
d="M1763 0h-706l-62 375h-495l-205 -375h-232l752 1325h930v-158h-690l71 -403h576v-158h-547l80 -448h528v-158zM973 528l-90 557l-301 -557h391z" />
    <glyph glyph-name="Ccedilla" unicode="&#xc7;" horiz-adv-x="1144" 
d="M1067 25q-172 -61 -340 -64l-4 -16q70 0 109.5 -45t39.5 -99q0 -98 -70.5 -153.5t-172.5 -55.5q-80 0 -199 17l41 133q115 -14 147 -14q98 0 99 69q0 39 -31 55.5t-133 16.5l29 104q-457 70 -457 689q0 145 29.5 263.5t96 218t184.5 154t282 54.5q172 0 336 -54l-66 -174
q-158 68 -270 68q-381 0 -381 -528q0 -262 85 -402.5t284 -140.5q104 0 296 78z" />
    <glyph glyph-name="Egrave" unicode="&#xc8;" horiz-adv-x="1144" 
d="M975 0h-778v1325h759v-158h-555v-403h512v-158h-512v-448h574v-158zM745 1409h-135l-254 240h193z" />
    <glyph glyph-name="Eacute" unicode="&#xc9;" horiz-adv-x="1144" 
d="M975 0h-778v1325h759v-158h-555v-403h512v-158h-512v-448h574v-158zM766 1626l-256 -240h-133l196 240h193z" />
    <glyph glyph-name="Ecircumflex" unicode="&#xca;" horiz-adv-x="1144" 
d="M975 0h-778v1325h759v-158h-555v-403h512v-158h-512v-448h574v-158zM838 1413h-142l-116 139l-123 -139h-140l193 234h139z" />
    <glyph glyph-name="Edieresis" unicode="&#xcb;" horiz-adv-x="1144" 
d="M975 0h-778v1325h759v-158h-555v-403h512v-158h-512v-448h574v-158zM836 1399h-172v170h172v-170zM518 1399h-172v170h172v-170z" />
    <glyph glyph-name="Igrave" unicode="&#xcc;" horiz-adv-x="548" 
d="M377 0h-205v1325h205v-1325zM434 1417h-135l-254 240h193z" />
    <glyph glyph-name="Iacute" unicode="&#xcd;" horiz-adv-x="550" 
d="M379 0h-205v1325h205v-1325zM479 1657l-256 -240h-133l197 240h192z" />
    <glyph glyph-name="Icircumflex" unicode="&#xce;" horiz-adv-x="550" 
d="M377 0h-205v1325h205v-1325zM535 1417h-142l-117 139l-122 -139h-140l193 234h139z" />
    <glyph glyph-name="Idieresis" unicode="&#xcf;" horiz-adv-x="548" 
d="M377 0h-205v1325h205v-1325zM520 1452h-172v170h172v-170zM203 1452h-172v170h172v-170z" />
    <glyph glyph-name="Eth" unicode="&#xd0;" horiz-adv-x="1333" 
d="M1208 668q0 -358 -148.5 -513t-484.5 -155h-378v674h-138v143h138v508h378q336 0 484.5 -150.5t148.5 -506.5zM997 666q0 154 -26.5 254t-84 153t-130 73.5t-181.5 20.5h-174v-350h256v-143h-256v-516h193q203 0 303 114.5t100 393.5z" />
    <glyph glyph-name="Ntilde" unicode="&#xd1;" horiz-adv-x="1435" 
d="M1239 0h-303l-547 1083v-1083h-192v1325h299l542 -1083v1083h201v-1325zM1010 1546q-23 -68 -77 -109.5t-124 -41.5q-49 0 -110.5 43t-90.5 43q-76 0 -100 -84l-105 49q37 82 82 112.5t125 30.5q43 0 104.5 -42t90.5 -42q37 0 62.5 28t35.5 60z" />
    <glyph glyph-name="Ograve" unicode="&#xd2;" horiz-adv-x="1439" 
d="M1315 657q0 -319 -140.5 -506.5t-451.5 -187.5q-598 0 -598 694q0 317 143.5 505t456.5 188q590 -1 590 -693zM1104 657q0 270 -89 402.5t-292 132.5q-205 0 -296 -132t-91 -403q0 -274 90 -405t297 -131t294 136t87 400zM846 1409h-135l-254 240h192z" />
    <glyph glyph-name="Oacute" unicode="&#xd3;" horiz-adv-x="1439" 
d="M1315 657q0 -319 -140.5 -506.5t-451.5 -187.5q-598 0 -598 694q0 317 143.5 505t456.5 188q590 -1 590 -693zM1104 657q0 270 -89 402.5t-292 132.5q-205 0 -296 -132t-91 -403q0 -274 90 -405t297 -131t294 136t87 400zM948 1647l-256 -240h-133l197 240h192z" />
    <glyph glyph-name="Ocircumflex" unicode="&#xd4;" horiz-adv-x="1439" 
d="M1315 657q0 -319 -140.5 -506.5t-451.5 -187.5q-598 0 -598 694q0 317 143.5 505t456.5 188q590 -1 590 -693zM1104 657q0 270 -89 402.5t-292 132.5q-205 0 -296 -132t-91 -403q0 -274 90 -405t297 -131t294 136t87 400zM979 1413h-141l-117 139l-123 -139h-139l192 234
h140z" />
    <glyph glyph-name="Otilde" unicode="&#xd5;" horiz-adv-x="1439" 
d="M1315 657q0 -319 -140.5 -506.5t-451.5 -187.5q-598 0 -598 694q0 317 143.5 505t456.5 188q590 -1 590 -693zM1104 657q0 270 -89 402.5t-292 132.5q-205 0 -296 -132t-91 -403q0 -274 90 -405t297 -131t294 136t87 400zM1030 1546q-23 -68 -77 -109.5t-124 -41.5
q-49 0 -110.5 43t-89.5 43q-76 0 -101 -84l-104 49q37 82 82 112.5t125 30.5q43 0 104.5 -42t89.5 -42q37 0 62.5 28t36.5 60z" />
    <glyph glyph-name="Odieresis" unicode="&#xd6;" horiz-adv-x="1439" 
d="M1315 657q0 -319 -140.5 -506.5t-451.5 -187.5q-598 0 -598 694q0 317 143.5 505t456.5 188q590 -1 590 -693zM1104 657q0 270 -89 402.5t-292 132.5q-205 0 -296 -132t-91 -403q0 -274 90 -405t297 -131t294 136t87 400zM967 1397h-172v170h172v-170zM649 1397h-172v170
h172v-170z" />
    <glyph glyph-name="multiply" unicode="&#xd7;" 
d="M961 172l-115 -115l-318 318l-317 -318l-115 115l318 317l-318 318l115 115l317 -318l318 318l115 -115l-318 -318z" />
    <glyph glyph-name="Oslash" unicode="&#xd8;" horiz-adv-x="1439" 
d="M1384 1305l-167 -197q98 -168 98 -451q0 -319 -140.5 -506.5t-451.5 -187.5q-240 0 -383 117l-174 -205l-133 123l184 217q-92 162 -92 442q0 317 143.5 505t456.5 188q229 0 369 -107l155 184zM975 1104q-92 88 -252 88q-205 0 -296 -132t-91 -403q0 -168 31 -268z
M1104 657q0 170 -35 277l-610 -717q90 -96 264 -96q207 0 294 136t87 400z" />
    <glyph glyph-name="Ugrave" unicode="&#xd9;" horiz-adv-x="1435" 
d="M1239 485q0 -522 -508 -522q-276 0 -405 129t-129 397v836h204v-815q0 -225 81 -307t249 -82q152 0 227.5 90t75.5 299v815h205v-840zM854 1409h-135l-254 240h192z" />
    <glyph glyph-name="Uacute" unicode="&#xda;" horiz-adv-x="1435" 
d="M1239 485q0 -522 -508 -522q-276 0 -405 129t-129 397v836h204v-815q0 -225 81 -307t249 -82q152 0 227.5 90t75.5 299v815h205v-840zM954 1628l-256 -239h-133l197 239h192z" />
    <glyph glyph-name="Ucircumflex" unicode="&#xdb;" horiz-adv-x="1435" 
d="M1239 485q0 -522 -508 -522q-276 0 -405 129t-129 397v836h204v-815q0 -225 81 -307t249 -82q152 0 227.5 90t75.5 299v815h205v-840zM977 1413h-141l-117 139l-123 -139h-139l192 234h139z" />
    <glyph glyph-name="Udieresis" unicode="&#xdc;" horiz-adv-x="1435" 
d="M1239 485q0 -522 -508 -522q-276 0 -405 129t-129 397v836h204v-815q0 -225 81 -307t249 -82q152 0 227.5 90t75.5 299v815h205v-840zM973 1399h-172v170h172v-170zM655 1399h-172v170h172v-170z" />
    <glyph glyph-name="Yacute" unicode="&#xdd;" horiz-adv-x="1208" 
d="M1178 1325l-467 -729v-596h-205v588l-475 737h231l354 -553l345 553h217zM776 1657l-256 -240h-133l197 240h192z" />
    <glyph glyph-name="Thorn" unicode="&#xde;" horiz-adv-x="1183" 
d="M1077 686q0 -399 -434 -399h-242v-287h-204v1325h204v-252h220q456 0 456 -387zM868 686q0 135 -64.5 182t-187.5 47h-215v-471h226q119 0 180 54.5t61 187.5z" />
    <glyph glyph-name="germandbls" unicode="&#xdf;" horiz-adv-x="1056" 
d="M961 270q0 -96 -33 -171.5t-85 -123t-125 -78t-147.5 -43t-156.5 -12.5l61 158q139 0 219 71.5t80 202.5q0 86 -33.5 149.5t-97 102.5t-104.5 55.5t-105 34.5v146l63.5 43t64.5 54t65.5 86t21.5 99q0 78 -50 119t-118 41q-80 0 -119.5 -47t-39.5 -170v-987h-183v965
q0 381 342 381q150 0 252.5 -73t102.5 -235q0 -49 -16.5 -95t-37 -76.5t-54.5 -61.5t-55.5 -46.5t-53 -34.5t-35.5 -22q8 -4 47 -18t58.5 -23.5l60.5 -31t64.5 -41t55 -53t49 -70.5t30 -87.5t12.5 -107.5z" />
    <glyph glyph-name="agrave" unicode="&#xe0;" horiz-adv-x="1026" 
d="M901 0h-170q0 4 -16.5 51t-16.5 51q-109 -127 -254 -127q-164 0 -258 69t-94 202q0 158 113.5 245t394.5 87h84v59q0 182 -160 182q-158 0 -329 -82l-64 152q195 72 399 72q156 0 247 -76t91 -223v-375q0 -33 5.5 -78t14.5 -107.5t13 -101.5zM686 227v224h-57
q-188 0 -266 -47.5t-78 -149.5q0 -68 51 -102.5t137 -34.5q145 -1 213 110zM614 1085h-135l-254 240h193z" />
    <glyph glyph-name="aacute" unicode="&#xe1;" horiz-adv-x="1026" 
d="M901 0h-170q0 4 -16.5 51t-16.5 51q-109 -127 -254 -127q-164 0 -258 69t-94 202q0 158 113.5 245t394.5 87h84v59q0 182 -160 182q-158 0 -329 -82l-64 152q195 72 399 72q156 0 247 -76t91 -223v-375q0 -33 5.5 -78t14.5 -107.5t13 -101.5zM686 227v224h-57
q-188 0 -266 -47.5t-78 -149.5q0 -68 51 -102.5t137 -34.5q145 -1 213 110zM721 1325l-256 -240h-133l196 240h193z" />
    <glyph glyph-name="acircumflex" unicode="&#xe2;" horiz-adv-x="1026" 
d="M901 0h-170q0 4 -16.5 51t-16.5 51q-109 -127 -254 -127q-164 0 -258 69t-94 202q0 158 113.5 245t394.5 87h84v59q0 182 -160 182q-158 0 -329 -82l-64 152q195 72 399 72q156 0 247 -76t91 -223v-375q0 -33 5.5 -78t14.5 -107.5t13 -101.5zM686 227v224h-57
q-188 0 -266 -47.5t-78 -149.5q0 -68 51 -102.5t137 -34.5q145 -1 213 110zM739 1092h-141l-117 139l-123 -139h-139l193 233h139z" />
    <glyph glyph-name="atilde" unicode="&#xe3;" horiz-adv-x="1026" 
d="M901 0h-170q0 4 -16.5 51t-16.5 51q-109 -127 -254 -127q-164 0 -258 69t-94 202q0 158 113.5 245t394.5 87h84v59q0 182 -160 182q-158 0 -329 -82l-64 152q195 72 399 72q156 0 247 -76t91 -223v-375q0 -33 5.5 -78t14.5 -107.5t13 -101.5zM686 227v224h-57
q-188 0 -266 -47.5t-78 -149.5q0 -68 51 -102.5t137 -34.5q145 -1 213 110zM786 1229q-23 -68 -77 -110t-123 -42q-49 0 -110.5 43t-90.5 43q-76 0 -100 -84l-105 49q37 82 82 113t125 31q43 0 104.5 -42t90.5 -42q63 0 104 88z" />
    <glyph glyph-name="adieresis" unicode="&#xe4;" horiz-adv-x="1026" 
d="M901 0h-170q0 4 -16.5 51t-16.5 51q-109 -127 -254 -127q-164 0 -258 69t-94 202q0 158 113.5 245t394.5 87h84v59q0 182 -160 182q-158 0 -329 -82l-64 152q195 72 399 72q156 0 247 -76t91 -223v-375q0 -33 5.5 -78t14.5 -107.5t13 -101.5zM686 227v224h-57
q-188 0 -266 -47.5t-78 -149.5q0 -68 51 -102.5t137 -34.5q145 -1 213 110zM752 1096h-174v182h174v-182zM430 1096h-172v182h172v-182z" />
    <glyph glyph-name="aring" unicode="&#xe5;" horiz-adv-x="1026" 
d="M901 0h-170q0 4 -16.5 51t-16.5 51q-109 -127 -254 -127q-164 0 -258 69t-94 202q0 158 113.5 245t394.5 87h84v59q0 182 -160 182q-158 0 -329 -82l-64 152q195 72 399 72q156 0 247 -76t91 -223v-375q0 -33 5.5 -78t14.5 -107.5t13 -101.5zM686 227v224h-57
q-188 0 -266 -47.5t-78 -149.5q0 -68 51 -102.5t137 -34.5q145 -1 213 110zM662 1206q0 -70 -49.5 -119t-120.5 -49q-70 0 -120 49.5t-50 119t49 118.5t120.5 49t121 -48t49.5 -120zM582 1208q0 39 -25 65.5t-65.5 26.5t-66.5 -27.5t-26 -64.5q0 -35 27 -63.5t66 -28.5
q43 0 66.5 26.5t23.5 65.5z" />
    <glyph glyph-name="ae" unicode="&#xe6;" horiz-adv-x="1611" 
d="M1516 397h-646q20 -285 248 -284q125 0 285 80l59 -144q-160 -74 -360 -74q-121 0 -208 50.5t-122 128.5q-137 -178 -328 -179q-164 0 -258 69t-94 202q0 158 113.5 245t394.5 87h86v59q0 182 -162 182q-158 0 -329 -82l-64 152q195 72 399 72q195 0 279 -134
q106 133 283 134q238 0 331 -140.5t93 -423.5zM1331 535q-8 285 -237 284q-90 0 -152.5 -69.5t-71.5 -214.5h461zM688 250v192h-59q-190 0 -267 -43t-77 -145q0 -68 51 -102.5t137 -34.5q68 0 125 40t90 93z" />
    <glyph glyph-name="ccedilla" unicode="&#xe7;" horiz-adv-x="903" 
d="M819 35q-92 -41 -246 -58l-8 -36q70 0 108 -44t38 -96q0 -94 -70 -151.5t-170 -57.5q-80 0 -199 17l33 127q115 -14 156 -15q43 0 73.5 18.5t30.5 57.5t-33.5 55.5t-136.5 16.5l31 117q-162 31 -248 156.5t-86 318.5q0 233 112.5 365t332.5 132q129 0 276 -57l-55 -158
q-125 74 -223 74q-133 0 -193.5 -87t-60.5 -269q0 -166 64.5 -254t186.5 -88q96 0 234 76z" />
    <glyph glyph-name="egrave" unicode="&#xe8;" horiz-adv-x="1026" 
d="M930 397h-643q20 -285 248 -284q125 0 284 80l60 -144q-160 -74 -361 -74q-209 0 -317.5 137.5t-108.5 346.5q0 90 19.5 172t64.5 159.5t130 124t202 46.5q238 0 330 -139.5t92 -424.5zM752 535q-8 285 -242 284q-90 0 -153.5 -70.5t-71.5 -213.5h467zM641 1085h-135
l-254 240h192z" />
    <glyph glyph-name="eacute" unicode="&#xe9;" horiz-adv-x="1026" 
d="M930 397h-643q20 -285 248 -284q125 0 284 80l60 -144q-160 -74 -361 -74q-209 0 -317.5 137.5t-108.5 346.5q0 90 19.5 172t64.5 159.5t130 124t202 46.5q238 0 330 -139.5t92 -424.5zM752 535q-8 285 -242 284q-90 0 -153.5 -70.5t-71.5 -213.5h467zM750 1325
l-256 -240h-134l197 240h193z" />
    <glyph glyph-name="ecircumflex" unicode="&#xea;" horiz-adv-x="1026" 
d="M930 397h-643q20 -285 248 -284q125 0 284 80l60 -144q-160 -74 -361 -74q-209 0 -317.5 137.5t-108.5 346.5q0 90 19.5 172t64.5 159.5t130 124t202 46.5q238 0 330 -139.5t92 -424.5zM752 535q-8 285 -242 284q-90 0 -153.5 -70.5t-71.5 -213.5h467zM780 1092h-141
l-117 139l-123 -139h-139l193 233h139z" />
    <glyph glyph-name="edieresis" unicode="&#xeb;" horiz-adv-x="1026" 
d="M930 397h-643q20 -285 248 -284q125 0 284 80l60 -144q-160 -74 -361 -74q-209 0 -317.5 137.5t-108.5 346.5q0 90 19.5 172t64.5 159.5t130 124t202 46.5q238 0 330 -139.5t92 -424.5zM752 535q-8 285 -242 284q-90 0 -153.5 -70.5t-71.5 -213.5h467zM772 1114h-172v170
h172v-170zM455 1114h-172v170h172v-170z" />
    <glyph glyph-name="igrave" unicode="&#xec;" horiz-adv-x="466" 
d="M408 1085h-136l-254 240h193zM326 0h-185v936h185v-936z" />
    <glyph glyph-name="iacute" unicode="&#xed;" horiz-adv-x="466" 
d="M428 1325l-256 -240h-133l197 240h192zM326 0h-185v936h185v-936z" />
    <glyph glyph-name="icircumflex" unicode="&#xee;" horiz-adv-x="466" 
d="M324 0h-185v936h185v-936zM504 1092h-142l-116 139l-123 -139h-139l192 233h139z" />
    <glyph glyph-name="idieresis" unicode="&#xef;" horiz-adv-x="466" 
d="M477 1153h-172v170h172v-170zM160 1153h-172v170h172v-170zM326 0h-185v936h185v-936z" />
    <glyph glyph-name="eth" unicode="&#xf0;" 
d="M961 580q0 -612 -451 -613q-178 0 -298 120t-120 298q0 209 102.5 323.5t301.5 114.5q74 0 153.5 -48t120.5 -130q0 336 -219 461l-168 -113l-135 78l139 96q-39 10 -172 25l-65 174q240 -16 403 -86l141 98l133 -78l-137 -94q271 -186 271 -626zM752 489
q-70 180 -246 181q-66 0 -110 -24.5t-63.5 -71t-26.5 -89.5t-7 -100q0 -127 58.5 -195.5t150.5 -68.5q121 0 182.5 79.5t61.5 288.5z" />
    <glyph glyph-name="ntilde" unicode="&#xf1;" horiz-adv-x="1042" 
d="M903 0h-182v592q0 109 -34 168t-142 59q-74 0 -131.5 -55t-91.5 -131v-633h-183v737q0 45 -10 111.5t-12 87.5h166l32 -131l18 21q17 22 25.5 30l29 28.5t37.5 31t40.5 22.5t50.5 18.5t55 6.5q184 0 258 -97.5t74 -275.5v-590zM823 1229q-23 -68 -77 -110t-123 -42
q-49 0 -110.5 43t-90.5 43q-76 0 -100 -84l-105 49q37 82 82 113t125 31q43 0 104.5 -42t89.5 -42q66 0 103 88z" />
    <glyph glyph-name="ograve" unicode="&#xf2;" horiz-adv-x="1058" 
d="M967 473q0 -223 -104.5 -361.5t-332.5 -138.5q-229 0 -333.5 138.5t-104.5 361.5q0 213 105.5 351.5t332.5 138.5q229 0 333 -134.5t104 -355.5zM778 473q0 176 -57 261t-191 85q-250 0 -249 -346q0 -356 249 -356q248 0 248 356zM686 1085h-135l-254 240h192z" />
    <glyph glyph-name="oacute" unicode="&#xf3;" horiz-adv-x="1058" 
d="M967 473q0 -223 -104.5 -361.5t-332.5 -138.5q-229 0 -333.5 138.5t-104.5 361.5q0 213 105.5 351.5t332.5 138.5q229 0 333 -134.5t104 -355.5zM778 473q0 176 -57 261t-191 85q-250 0 -249 -346q0 -356 249 -356q248 0 248 356zM754 1325l-256 -240h-133l196 240h193z
" />
    <glyph glyph-name="ocircumflex" unicode="&#xf4;" horiz-adv-x="1058" 
d="M967 473q0 -223 -104.5 -361.5t-332.5 -138.5q-229 0 -333.5 138.5t-104.5 361.5q0 213 105.5 351.5t332.5 138.5q229 0 333 -134.5t104 -355.5zM778 473q0 176 -57 261t-191 85q-250 0 -249 -346q0 -356 249 -356q248 0 248 356zM793 1092h-142l-116 139l-123 -139h-140
l193 233h139z" />
    <glyph glyph-name="otilde" unicode="&#xf5;" horiz-adv-x="1058" 
d="M967 473q0 -223 -104.5 -361.5t-332.5 -138.5q-229 0 -333.5 138.5t-104.5 361.5q0 213 105.5 351.5t332.5 138.5q229 0 333 -134.5t104 -355.5zM778 473q0 176 -57 261t-191 85q-250 0 -249 -346q0 -356 249 -356q248 0 248 356zM815 1229q-23 -68 -77 -110t-124 -42
q-49 0 -110.5 43t-89.5 43q-76 0 -101 -84l-104 49q37 82 82 113t125 31q43 0 104.5 -42t89.5 -42q37 0 62.5 27.5t36.5 60.5z" />
    <glyph glyph-name="odieresis" unicode="&#xf6;" horiz-adv-x="1058" 
d="M967 473q0 -223 -104.5 -361.5t-332.5 -138.5q-229 0 -333.5 138.5t-104.5 361.5q0 213 105.5 351.5t332.5 138.5q229 0 333 -134.5t104 -355.5zM778 473q0 176 -57 261t-191 85q-250 0 -249 -346q0 -356 249 -356q248 0 248 356zM774 1114h-172v170h172v-170zM457 1114
h-172v170h172v-170z" />
    <glyph glyph-name="divide" unicode="&#xf7;" 
d="M629 688h-203v197h203v-197zM971 383h-889v133h889v-133zM629 25h-203v196h203v-196z" />
    <glyph glyph-name="oslash" unicode="&#xf8;" horiz-adv-x="1058" 
d="M1028 881l-117 -127q55 -113 56 -281q0 -223 -104.5 -361.5t-332.5 -138.5q-162 0 -266 78l-110 -119l-123 121l121 131q-59 119 -60 289q0 213 105.5 351.5t332.5 138.5q162 0 265 -80l108 118zM686 764q-55 55 -156 55q-250 0 -249 -346q0 -78 14 -133zM778 473
q0 80 -10 125l-393 -426q59 -55 155 -55q248 0 248 356z" />
    <glyph glyph-name="ugrave" unicode="&#xf9;" horiz-adv-x="1028" 
d="M659 1085h-135l-254 240h193zM911 0h-166l-32 131q-2 -4 -20.5 -26.5t-30 -35t-35 -33t-45 -32.5t-53 -21.5t-64.5 -9.5q-326 0 -326 373v590h183v-592q0 -70 9 -114t49 -78.5t112 -34.5q131 0 215 186v633h182v-737q0 -45 10 -112t12 -87z" />
    <glyph glyph-name="uacute" unicode="&#xfa;" horiz-adv-x="1028" 
d="M911 0h-166l-32 131q-2 -4 -20.5 -26.5t-30 -35t-35 -33t-45 -32.5t-53 -21.5t-64.5 -9.5q-326 0 -326 373v590h183v-592q0 -70 9 -114t49 -78.5t112 -34.5q131 0 215 186v633h182v-737q0 -45 10 -112t12 -87zM735 1325l-256 -240h-133l197 240h192z" />
    <glyph glyph-name="ucircumflex" unicode="&#xfb;" horiz-adv-x="1028" 
d="M911 0h-166l-32 131q-2 -4 -20.5 -26.5t-30 -35t-35 -33t-45 -32.5t-53 -21.5t-64.5 -9.5q-326 0 -326 373v590h183v-592q0 -70 9 -114t49 -78.5t112 -34.5q131 0 215 186v633h182v-737q0 -45 10 -112t12 -87zM772 1092h-141l-117 139l-123 -139h-139l192 233h140z" />
    <glyph glyph-name="udieresis" unicode="&#xfc;" horiz-adv-x="1028" 
d="M911 0h-166l-32 131q-2 -4 -20.5 -26.5t-30 -35t-35 -33t-45 -32.5t-53 -21.5t-64.5 -9.5q-326 0 -326 373v590h183v-592q0 -70 9 -114t49 -78.5t112 -34.5q131 0 215 186v633h182v-737q0 -45 10 -112t12 -87zM758 1114h-172v170h159zM440 1114h-172v170h172v-170z" />
    <glyph glyph-name="yacute" unicode="&#xfd;" horiz-adv-x="1040" 
d="M963 936l-392 -1086q-43 -121 -115.5 -194.5t-205.5 -120.5l-60 154q145 39 181 133l82 217l-375 897h196l269 -686l231 686h189zM727 1325l-256 -240h-133l197 240h192z" />
    <glyph glyph-name="thorn" unicode="&#xfe;" horiz-adv-x="1046" 
d="M954 473q0 -215 -104.5 -356.5t-302.5 -141.5q-78 0 -138.5 38t-93.5 89l-32 -467h-166q23 176 22 652v1059h183v-541q106 156 251 156q197 0 289 -136.5t92 -351.5zM766 469q0 350 -217 350q-59 0 -109.5 -35.5t-73 -69.5t-49.5 -85v-375q29 -63 84.5 -100t120.5 -37
q244 0 244 352z" />
    <glyph glyph-name="ydieresis" unicode="&#xff;" horiz-adv-x="1040" 
d="M963 936l-392 -1086q-43 -121 -115.5 -194.5t-205.5 -120.5l-60 154q145 39 181 133l82 217l-375 897h196l269 -686l231 686h189zM784 1120h-172v170h172v-170zM467 1120h-172v170h172v-170z" />
  </font>
</defs>
</svg>
